<svg width="98" height="120" viewBox="0 0 98 120" fill="none" xmlns="http://www.w3.org/2000/svg">
<path d="M49 114.013C76.062 114.013 98 92.4962 98 65.9538C98 39.4114 76.062 17.8945 49 17.8945C21.938 17.8945 0 39.4114 0 65.9538C0 92.4962 21.938 114.013 49 114.013Z" fill="#EE3224"/>
<path d="M48.9993 104.92C70.9414 104.92 88.729 87.4742 88.729 65.9533C88.729 44.4324 70.9414 26.9863 48.9993 26.9863C27.0571 26.9863 9.26953 44.4324 9.26953 65.9533C9.26953 87.4742 27.0571 104.92 48.9993 104.92Z" fill="white"/>
<path d="M26.1361 112.526C28.5658 108.399 28.9129 104.134 26.9113 103C24.9097 101.867 21.3174 104.294 18.8877 108.422C16.458 112.549 16.1109 116.814 18.1125 117.948C20.1141 119.081 23.7064 116.654 26.1361 112.526Z" fill="#EE3224"/>
<path d="M50.3244 10.6748H47.6758V21.066H50.3244V10.6748Z" fill="#EE3224"/>
<path d="M49.0002 13.2522C50.463 13.2522 51.6489 12.0892 51.6489 10.6544C51.6489 9.21971 50.463 8.05664 49.0002 8.05664C47.5374 8.05664 46.3516 9.21971 46.3516 10.6544C46.3516 12.0892 47.5374 13.2522 49.0002 13.2522Z" fill="#EE3224"/>
<path d="M13.4261 2.72572C3.46985 8.36294 0.0080657 21.0376 5.75563 30.8027C11.6383 28.2569 18.0454 25.1421 24.765 21.3208C31.2542 17.6319 37.0123 13.8651 42.0527 10.2489C36.3025 0.483817 23.3824 -2.91151 13.4261 2.72572Z" fill="#EE3224"/>
<path d="M25.4065 17.2416L20.6836 19.916L25.9809 28.9151L30.7038 26.2406L25.4065 17.2416Z" fill="#EE3224"/>
<path d="M41.7837 40.7187C42.4512 37.9599 42.9438 35.653 43.259 33.8008C43.2537 33.7904 43.2405 33.7852 43.2193 33.7852C43.161 33.7852 42.9385 33.8424 42.5492 33.9567C42.1572 34.071 41.9135 34.1281 41.8155 34.1281C41.7837 34.1281 41.7625 34.1229 41.7546 34.1125C41.7334 34.0969 41.7202 34.0658 41.7149 34.0216C41.699 33.9722 41.6857 33.9047 41.6751 33.8242C41.6381 33.5748 41.601 33.1721 41.5586 32.6136C41.8791 32.2941 42.1678 32.0187 42.4273 31.7927C43.0418 31.229 43.4524 30.9224 43.6537 30.8731C44.0059 30.7925 44.3132 30.751 44.5781 30.751C45.1369 30.751 45.4574 30.9172 45.5395 31.2524C45.5501 31.2887 45.5607 31.3277 45.5713 31.3744C45.5819 31.5329 45.5872 31.6888 45.5872 31.8472C45.5872 32.2785 45.5501 32.7175 45.4786 33.1643C45.4018 33.6423 45.3329 33.9177 45.2773 33.993C45.0442 34.936 44.8058 35.8816 44.5622 36.8246C44.0404 38.9055 43.7782 40.1576 43.7782 40.5836V40.5992C43.6378 40.8382 43.4921 41.0772 43.3358 41.3136C43.2114 41.5111 43.0312 41.6098 42.7929 41.6098C42.7399 41.6098 42.6896 41.6046 42.6366 41.5942C42.2181 41.5344 41.9321 41.2409 41.7837 40.7187Z" fill="#EE3224"/>
<path d="M49.0185 34.2969C48.7642 34.2969 48.4596 34.141 48.1021 33.8241C47.7445 33.5097 47.53 33.2214 47.4584 32.9564L47.4505 32.9018C47.4452 32.8759 47.4426 32.8473 47.4426 32.8187C47.4426 32.3511 48.0412 31.8757 49.2357 31.3873C50.115 31.073 50.9917 30.7613 51.8658 30.4521C52.0989 30.356 52.3479 30.3066 52.6101 30.3066C53.3596 30.3066 54.0933 30.608 54.8058 31.2133C55.505 31.8108 55.958 32.5122 56.1646 33.3149C56.1751 33.3746 56.1884 33.4396 56.2043 33.5045L56.2202 33.5799C56.2308 33.6604 56.2361 33.7435 56.2361 33.8319C56.2361 34.5177 55.8202 35.2866 54.9859 36.1387C54.2761 36.8687 53.3411 37.5831 52.1757 38.2767C51.6592 38.5365 51.1401 38.7936 50.6236 39.0534C50.7057 39.0223 51.5347 38.9391 53.108 38.8014C54.1622 38.7469 54.9462 38.7183 55.46 38.7183C55.7143 38.7183 55.897 38.7261 56.0109 38.7417C56.1804 38.7625 56.3049 38.9235 56.3844 39.2301C56.4003 39.295 56.4135 39.36 56.4241 39.4197C56.44 39.5158 56.448 39.6094 56.448 39.7003C56.448 39.8432 56.4294 39.9834 56.3923 40.1263C56.2996 40.451 56.1354 40.6147 55.9023 40.6147C55.8494 40.6147 55.7302 40.5913 55.5368 40.542C55.3461 40.4926 55.1766 40.4692 55.0336 40.4692C53.8232 40.4692 51.4923 40.8485 48.0411 41.6097C47.3075 40.9238 46.881 40.3679 46.7698 39.9419L46.7619 39.8665C46.7566 39.825 46.7539 39.7886 46.7539 39.7522C46.7539 39.7029 46.7592 39.6561 46.7698 39.6146C46.9711 39.0716 48.2001 38.1208 50.4567 36.7596C52.7743 35.3594 54.0271 34.4839 54.2125 34.1332C54.3476 33.8682 54.4138 33.637 54.4138 33.4318C54.4138 33.3902 54.4138 33.3539 54.4059 33.3175L54.39 33.2499C54.2973 32.8785 53.937 32.694 53.312 32.694C53.0365 32.694 52.761 32.7356 52.4829 32.8161C52.1148 32.9174 51.5347 33.146 50.7454 33.5019C49.9906 33.837 49.4794 34.0864 49.2171 34.2475C49.1589 34.2787 49.0953 34.2943 49.0238 34.2943L49.0185 34.2969Z" fill="#EE3224"/>
<path d="M46.1118 92.5453C47.5447 91.0801 49.2954 90.3294 51.364 90.3008C51.6739 90.5606 51.9043 90.9814 52.0553 91.5633C52.0977 91.7296 52.1268 91.8802 52.148 92.0127C52.1692 92.14 52.1798 92.2517 52.1798 92.3478C52.1798 92.5816 52.1242 92.7271 52.0103 92.7895C51.7825 92.7687 51.5521 92.7583 51.319 92.7583C49.9391 92.7583 48.7154 93.1142 47.648 93.8234C46.5408 94.5586 45.974 95.4418 45.9475 96.4731C46.2627 96.1276 46.7448 95.7899 47.3911 95.46C47.9393 95.1665 48.424 94.9638 48.8425 94.8521C49.5153 94.6651 50.1192 94.5716 50.6595 94.5716C52.0818 94.5716 53.0592 95.2262 53.5915 96.5355C53.6842 96.7537 53.7531 96.9563 53.7928 97.1434C53.8193 97.2395 53.8405 97.3356 53.8538 97.4317C53.8749 97.5538 53.8855 97.6707 53.8855 97.7824C53.8855 98.2241 53.7372 98.6059 53.4432 98.9307C53.0856 99.3255 52.3917 99.7516 51.3561 100.209C50.0794 100.773 48.9087 101.053 47.8493 101.053C47.3063 101.053 46.7051 100.98 46.0482 100.832C45.6641 100.752 45.3172 100.505 45.0046 100.094C44.6921 99.684 44.4564 99.1723 44.3027 98.5566C44.2498 98.354 44.21 98.1513 44.1782 97.9487C44.1306 97.6344 44.1094 97.3174 44.1094 96.9979C44.1094 96.4965 44.1676 95.9874 44.2868 95.4756C44.5146 94.5274 45.1212 93.5506 46.1091 92.5453H46.1118ZM46.6627 98.276C46.5753 98.4033 46.5302 98.5228 46.5302 98.6345C46.5302 98.6605 46.5302 98.6839 46.5382 98.7021L46.5461 98.7488C46.6335 99.0891 47.0388 99.258 47.7566 99.258C48.13 99.258 48.5353 99.2034 48.9749 99.0917C49.8967 98.8631 50.6648 98.5826 51.2793 98.2474C51.9732 97.8708 52.3202 97.4967 52.3202 97.12C52.3202 97.0888 52.3202 97.0602 52.3122 97.0291L52.3043 96.9693C52.1586 96.4108 51.6766 96.1328 50.8528 96.1328C50.1748 96.1328 49.5576 96.2471 48.9988 96.4757C48.228 96.7953 47.6771 97.1018 47.346 97.3954C47.1951 97.5279 46.9673 97.8214 46.6627 98.2786V98.276Z" fill="#EE3224"/>
<path d="M80.9389 71.5727C79.9668 71.5727 79.0107 71.4169 78.0757 71.1077C77.1593 70.809 76.6587 70.4998 76.5713 70.1803V70.1335C76.5607 70.079 76.5554 70.0244 76.5554 69.9725C76.5554 69.562 76.8256 69.2477 77.3632 69.0295C77.4612 69.323 77.7234 69.5568 78.1499 69.7257C78.5763 69.8945 79.0584 69.9803 79.596 69.9803C80.2317 69.9803 80.7906 69.8712 81.2726 69.6529C82.7056 69.0191 83.4233 68.4761 83.4233 68.0241C83.4233 68.0033 83.4233 67.9826 83.4154 67.9644L83.4074 67.9254C83.3306 67.6111 82.891 67.3331 82.0884 67.0967C81.7414 66.9954 81.0713 66.9434 80.0781 66.9434C79.6543 66.9434 79.167 66.9538 78.6187 66.9746C78.6028 66.7616 78.5949 66.5746 78.5949 66.4109C78.5949 65.8732 78.6664 65.603 78.812 65.603H78.8359C78.8518 65.6082 78.8677 65.6108 78.8836 65.6108C79.069 65.6108 79.4874 65.4835 80.1337 65.2315C80.931 64.9068 81.5693 64.5509 82.0513 64.1664C82.5943 63.7559 82.8671 63.3689 82.8671 63.0104C82.8671 62.9688 82.8671 62.9324 82.8592 62.8961L82.8512 62.8285L82.8353 62.7974C82.7056 62.3609 82.2685 62.1427 81.5243 62.1427C80.9098 62.1427 80.2635 62.2934 79.5934 62.5921C78.8597 62.9272 78.277 63.3715 77.8479 63.9248C77.8267 63.956 77.7923 63.9716 77.7473 63.9716C77.5619 63.9716 77.2732 63.8027 76.8812 63.465C76.4918 63.1273 76.2667 62.8363 76.2111 62.5947L76.2031 62.5558V62.509C76.2031 62.4544 76.2164 62.4051 76.2429 62.3635C76.4071 62.1453 77.0825 61.7738 78.2638 61.2491C79.4451 60.7243 80.2741 60.4308 80.7508 60.371C80.9416 60.3502 81.1243 60.3398 81.2938 60.3398C82.1414 60.3398 82.8777 60.5736 83.4975 61.0412C84.0511 61.4569 84.4033 61.9609 84.5517 62.548C84.5676 62.6129 84.5808 62.6805 84.5914 62.7454C84.6073 62.8467 84.6152 62.9454 84.6152 63.0416C84.6152 63.8599 84.1067 64.6938 83.087 65.5458C84.2312 66.1044 84.9172 66.8291 85.1423 67.7228C85.1688 67.8241 85.19 67.9254 85.2032 68.0267C85.2244 68.1644 85.235 68.2969 85.235 68.4294C85.235 69.2321 84.8483 69.9309 84.0723 70.531C83.1876 71.2272 82.144 71.5727 80.9442 71.5727H80.9389Z" fill="#EE3224"/>
<path d="M21.8331 67.7619C21.4809 68.7621 20.9723 69.5544 20.3049 70.1441C19.4043 70.9364 18.2336 71.3417 16.7901 71.3625C16.4802 71.1027 16.2736 70.7624 16.1703 70.3338C16.1438 70.2428 16.1253 70.1571 16.1147 70.074C16.0988 69.9882 16.0909 69.9129 16.0909 69.8454C16.0909 69.6272 16.1571 69.4817 16.2922 69.4115C16.4829 69.4323 16.6762 69.4427 16.8669 69.4427C18.0668 69.4427 19.0123 69.0375 19.7063 68.2243C20.3525 67.4892 20.6916 66.5488 20.7233 65.4083C20.5115 65.8655 20.0559 66.2864 19.3566 66.6709C18.8905 66.9203 18.4561 67.0995 18.0535 67.2112C17.6853 67.3177 17.296 67.3723 16.8828 67.3723C15.9717 67.3723 15.1506 67.1592 14.4143 66.7332C13.6276 66.276 13.1429 65.6785 12.9549 64.9381C12.9337 64.8472 12.9151 64.7537 12.8992 64.6576C12.8675 64.4342 12.8516 64.2237 12.8516 64.0263C12.8516 63.5587 12.939 63.1794 13.1164 62.8859C13.421 62.3793 14.0779 61.8987 15.087 61.4467C16.459 60.8492 17.786 60.5479 19.0679 60.5479C19.6639 60.5479 20.2413 60.6076 20.8055 60.7297C21.5338 60.8882 22.045 61.5272 22.3337 62.6469C22.3761 62.8183 22.4105 62.9976 22.4423 63.1794C22.49 63.4834 22.5112 63.7925 22.5112 64.1068C22.5112 64.6913 22.4344 65.2992 22.2781 65.9331C22.0079 67.0346 21.8596 67.6424 21.8278 67.7593L21.8331 67.7619ZM20.1963 63.2859C20.2519 63.2106 20.281 63.1301 20.281 63.0417C20.281 63.021 20.2784 63.0002 20.2731 62.982L20.2651 62.9274C20.2069 62.7092 20.0082 62.5196 19.6665 62.3611C19.3249 62.2026 18.9329 62.1221 18.4879 62.1221C18.0429 62.1221 17.6085 62.2078 17.2165 62.3819C16.0114 62.9248 15.3466 63.2262 15.2221 63.2885C14.7056 63.6029 14.446 63.9302 14.446 64.2705C14.446 64.3069 14.446 64.3406 14.454 64.377L14.4699 64.4445C14.6659 65.2213 15.3863 65.6084 16.6259 65.6084C17.0603 65.6084 17.3225 65.5824 17.4099 65.533C18.7024 64.8784 19.6321 64.1302 20.1963 63.2885V63.2859Z" fill="#EE3224"/>
<path d="M49.0002 68.5511C50.463 68.5511 51.6489 67.388 51.6489 65.9533C51.6489 64.5185 50.463 63.3555 49.0002 63.3555C47.5374 63.3555 46.3516 64.5185 46.3516 65.9533C46.3516 67.388 47.5374 68.5511 49.0002 68.5511Z" fill="#EE3224"/>
<path d="M50.966 53.4091C51.0507 50.8996 51.4374 47.0393 50.3488 44.6052C50.182 44.2337 49.7741 43.3478 49.1755 43.3219C48.5663 43.2959 48.0736 44.1687 47.8935 44.4857C46.5983 46.7769 46.9188 50.6606 46.9718 53.4559C47.0486 57.5552 46.5957 61.5818 47.9386 64.5147C48.1187 64.9096 48.6166 65.9954 49.1755 65.9565C49.631 65.9253 49.9409 65.159 50.1343 64.5641C51.154 61.3999 50.8547 56.7603 50.9686 53.4091H50.966Z" fill="#EE3224"/>
<path d="M58.0197 68.0396C59.7545 68.1981 62.4085 68.6942 64.1433 67.6993C64.4082 67.5486 65.0386 67.1745 65.0836 66.5874C65.1286 65.9899 64.5459 65.4808 64.334 65.2963C62.8058 63.9585 60.1015 64.1559 58.1627 64.1221C55.3207 64.0754 52.5528 63.5064 50.4604 64.7352C50.1797 64.8989 49.4062 65.3535 49.4062 65.9042C49.4062 66.351 49.9254 66.6784 50.328 66.8836C52.4734 67.9798 55.6994 67.824 58.017 68.037L58.0197 68.0396Z" fill="#EE3224"/>
<path d="M84.5758 2.72572C74.6195 -2.91151 61.6968 0.483817 55.9492 10.2489C61.1379 13.9716 67.0921 17.8579 73.8249 21.6533C80.3274 25.3214 86.5305 28.327 92.2463 30.8001C97.9939 21.035 94.5321 8.36034 84.5758 2.72312V2.72572Z" fill="#EE3224"/>
<path d="M77.7503 20.1598L73.0273 17.4854L67.73 26.4844L72.453 29.1588L77.7503 20.1598Z" fill="#EE3224"/>
<path d="M79.8839 117.948C81.8855 116.814 81.5385 112.55 79.1087 108.422C76.679 104.294 73.0867 101.867 71.0851 103C69.0835 104.134 69.4306 108.399 71.8603 112.526C74.2901 116.654 77.8824 119.081 79.8839 117.948Z" fill="#EE3224"/>
<path d="M66.4339 35.2117L62.4609 41.9609L63.6078 42.6104L67.5808 35.8611L66.4339 35.2117Z" fill="#EE3224"/>
<path d="M79.8619 47.9031L72.9805 51.7998L73.6426 52.9247L80.524 49.028L79.8619 47.9031Z" fill="#EE3224"/>
<path d="M73.6465 79.3331L72.9844 80.458L79.8658 84.3547L80.5279 83.2298L73.6465 79.3331Z" fill="#EE3224"/>
<path d="M63.6078 89.6494L62.4609 90.2988L66.4339 97.0481L67.5808 96.3987L63.6078 89.6494Z" fill="#EE3224"/>
<path d="M34.3909 89.6472L30.418 96.3965L31.5649 97.0459L35.5378 90.2967L34.3909 89.6472Z" fill="#EE3224"/>
<path d="M24.358 79.3338L17.4766 83.2305L18.1387 84.3553L25.0201 80.4586L24.358 79.3338Z" fill="#EE3224"/>
<path d="M18.1387 47.9054L17.4766 49.0303L24.358 52.927L25.0201 51.8021L18.1387 47.9054Z" fill="#EE3224"/>
<path d="M31.5649 35.2109L30.418 35.8604L34.3909 42.6096L35.5378 41.9602L31.5649 35.2109Z" fill="#EE3224"/>
</svg>
