<?xml version="1.0" standalone="no"?>
<!DOCTYPE svg PUBLIC "-//W3C//DTD SVG 20010904//EN"
 "http://www.w3.org/TR/2001/REC-SVG-20010904/DTD/svg10.dtd">
<svg version="1.0" xmlns="http://www.w3.org/2000/svg"
 width="283.000000pt" height="357.000000pt" viewBox="0 0 283.000000 357.000000"
 preserveAspectRatio="xMidYMid meet">

<g transform="translate(0.000000,357.000000) scale(0.100000,-0.100000)"
fill="#000000" stroke="none">
<path d="M1575 3330 c-4 -6 6 -39 21 -73 26 -56 28 -72 28 -172 0 -88 -5 -123
-23 -175 -29 -84 -87 -183 -147 -249 -37 -41 -52 -51 -73 -49 -18 2 -25 8 -22
18 3 8 6 60 8 115 3 81 1 107 -14 135 -27 53 -44 44 -68 -35 -41 -135 -77
-191 -303 -470 -118 -145 -175 -296 -175 -465 -1 -146 34 -246 118 -340 62
-70 48 -87 -48 -54 -63 21 -137 90 -170 157 -42 86 -57 167 -57 307 0 138 18
234 69 385 17 49 31 98 31 107 0 61 -148 -41 -245 -167 -106 -139 -176 -302
-217 -507 -19 -98 -22 -143 -22 -333 1 -205 3 -227 27 -318 70 -264 275 -569
490 -730 147 -110 378 -221 488 -234 72 -8 64 12 -34 95 -232 197 -304 313
-328 529 -24 208 47 415 162 473 54 28 140 27 204 -4 57 -26 155 -112 211
-186 39 -52 91 -84 118 -74 8 3 40 57 71 120 90 182 198 273 347 290 81 9 123
-2 170 -44 58 -52 78 -101 78 -192 0 -233 -153 -499 -461 -800 -93 -91 -169
-171 -169 -179 0 -30 179 16 328 84 284 131 538 414 636 705 73 218 86 471 32
635 -43 135 -86 195 -252 360 -143 141 -153 154 -159 197 -4 26 -4 65 0 87 10
57 -14 65 -61 20 -65 -63 -78 -106 -81 -266 -1 -101 -6 -150 -17 -170 -55
-106 -211 -138 -294 -60 -45 42 -65 96 -66 177 0 106 28 181 131 346 96 153
127 222 148 322 39 182 1 356 -106 490 -78 99 -282 227 -304 192z"/>
</g>
</svg>
