<?xml version="1.0" standalone="no"?>
<!DOCTYPE svg PUBLIC "-//W3C//DTD SVG 20010904//EN"
 "http://www.w3.org/TR/2001/REC-SVG-20010904/DTD/svg10.dtd">
<svg version="1.0" xmlns="http://www.w3.org/2000/svg"
 width="121.000000pt" height="50.000000pt" viewBox="0 0 121.000000 50.000000"
 preserveAspectRatio="xMidYMid meet">

<g transform="translate(0.000000,50.000000) scale(0.100000,-0.100000)"
fill="#E95244" stroke="none">
<path d="M325 389 c-144 -24 -254 -104 -244 -178 7 -44 51 -66 145 -70 109 -4
191 10 339 61 109 36 121 39 130 23 23 -38 34 -50 41 -43 6 7 2 20 -24 70 -2
3 32 18 75 32 140 47 217 47 273 0 16 -14 34 -22 40 -19 16 10 -6 32 -54 57
-60 31 -143 26 -260 -13 l-95 -32 -36 31 c-87 77 -195 104 -330 81z m197 -30
c39 -10 130 -67 135 -85 4 -13 -106 -58 -212 -86 -146 -39 -311 -33 -335 12
-18 33 13 83 68 112 113 61 226 76 344 47z"/>
</g>
</svg>
