<?xml version="1.0" standalone="no"?>
<!DOCTYPE svg PUBLIC "-//W3C//DTD SVG 20010904//EN"
 "http://www.w3.org/TR/2001/REC-SVG-20010904/DTD/svg10.dtd">
<svg version="1.0" xmlns="http://www.w3.org/2000/svg"
 width="121.000000pt" height="43.000000pt" viewBox="0 0 121.000000 43.000000"
 preserveAspectRatio="xMidYMid meet">

<g transform="translate(0.000000,43.000000) scale(0.100000,-0.100000)"
fill="#E95244" stroke="none">
<path d="M665 326 c-62 -15 -104 -37 -150 -78 l-36 -31 -77 27 c-151 52 -226
52 -304 1 -29 -19 -37 -30 -29 -38 7 -7 15 -6 28 5 10 9 34 23 52 33 43 21
124 16 221 -14 93 -30 95 -32 76 -69 -20 -38 -20 -42 -2 -42 7 0 19 14 26 30
7 17 18 30 24 30 6 0 61 -18 121 -39 140 -49 230 -65 338 -59 74 4 91 8 112
28 77 72 -20 177 -200 215 -83 17 -132 18 -200 1z m230 -32 c151 -37 223 -131
135 -177 -71 -37 -266 -11 -464 63 l-58 22 28 29 c75 78 203 101 359 63z"/>
</g>
</svg>
