<?xml version="1.0" standalone="no"?>
<!DOCTYPE svg PUBLIC "-//W3C//DTD SVG 20010904//EN"
 "http://www.w3.org/TR/2001/REC-SVG-20010904/DTD/svg10.dtd">
<svg version="1.0" xmlns="http://www.w3.org/2000/svg"
 width="227.000000pt" height="84.000000pt" viewBox="0 0 227.000000 84.000000"
 preserveAspectRatio="xMidYMid meet">
<g transform="translate(0.000000,84.000000) scale(0.10000,-0.10000)"
fill="#B8D8D8" stroke="none">
<path d="M330 689 c-168 -28 -284 -144 -284 -284 1 -75 26 -127 90 -183 125
-111 327 -127 576 -46 87 28 98 38 91 76 l-5 26 -54 -24 c-159 -70 -362 -89
-477 -45 -170 66 -218 223 -103 337 56 56 136 85 252 91 110 7 216 -10 475
-72 710 -173 741 -178 989 -179 172 -1 188 1 226 21 23 12 54 36 68 54 l27 32
-22 23 -23 24 -30 -31 c-68 -70 -157 -88 -347 -69 -185 17 -307 42 -709 140
-478 118 -588 134 -740 109z"/>
</g>
</svg>
