<svg width="120" height="120" viewBox="0 0 120 120" fill="none" xmlns="http://www.w3.org/2000/svg">
<path d="M60 120C93.1371 120 120 93.1371 120 60C120 26.8629 93.1371 0 60 0C26.8629 0 0 26.8629 0 60C0 93.1371 26.8629 120 60 120Z" fill="#FFD100"/>
<path d="M78.6121 29.1599C83.7811 30.3539 87.6901 32.4089 90.3421 35.3219C91.1701 36.2819 91.7161 37.2449 91.9831 38.2049C92.0821 38.4719 92.1481 38.7179 92.1811 38.9519C92.2141 39.1829 92.2321 39.4169 92.2321 39.6479C92.2321 40.9409 91.6531 42.0989 90.4921 43.1279C88.9351 44.5199 87.0961 45.2159 84.9751 45.2159C81.7951 45.2159 79.6081 43.7429 78.4141 40.7939C78.0151 39.8009 76.5901 38.9039 74.1391 38.1089C73.0771 41.0909 71.8351 44.8529 70.4101 49.3919C82.6021 49.8899 89.9101 54.5099 92.3281 63.2579C92.5591 64.0529 92.7571 65.0639 92.9251 66.2909L93.0751 67.2839C93.1081 67.5509 93.1261 67.8299 93.1261 68.1299C93.1261 71.9069 90.1591 75.7169 84.2281 79.5599C77.4691 83.9009 69.8131 86.0699 61.2661 86.0699H59.2291C57.1741 92.2019 55.6171 95.9609 54.5581 97.3529C54.0271 97.4519 53.3161 97.5029 52.4221 97.5029C50.2021 97.5029 48.1651 97.1549 46.3081 96.4589C43.8571 95.5979 42.4141 94.3229 41.9851 92.6309C41.9191 92.4659 41.8681 92.2829 41.8351 92.0849C41.8021 91.8539 41.7841 91.6199 41.7841 91.3889C41.7841 90.7589 41.9161 90.0809 42.1831 89.3519C42.7801 87.6299 43.3591 85.9049 43.9231 84.1829C37.3951 82.5599 31.9441 79.8929 27.5701 76.1819C27.3721 76.0829 27.2551 75.9329 27.2221 75.7349L27.1711 75.5849V75.4349C27.1711 74.4749 28.3651 73.1819 30.7501 71.5589C33.3661 69.8039 35.5711 68.9249 37.3591 68.9249C38.2861 68.9249 38.9011 69.2219 39.1981 69.8189C40.1251 71.6759 42.8431 73.1489 47.3491 74.2409C49.1041 69.0389 50.8621 63.8699 52.6171 58.7339C47.8771 58.7669 44.8801 58.9499 43.6201 59.2799C43.1551 59.4449 42.5101 59.5289 41.6821 59.5289C38.9641 59.5289 36.0991 58.9649 33.0841 57.8399C29.7361 56.6459 27.8491 55.2389 27.4171 53.6159L27.3661 53.5169C27.2341 53.0189 27.1351 52.5389 27.0691 52.0769C26.9371 51.0839 26.8711 50.1389 26.8711 49.2449C26.8711 46.8599 27.3691 44.7209 28.3621 42.8339C29.5561 40.5479 31.6261 38.4269 34.5751 36.4709C37.1581 35.0459 39.7111 33.6059 42.2281 32.1479C43.9171 31.1549 46.9831 30.2579 51.4231 29.4629C55.5631 28.6349 59.7571 28.1549 63.9991 28.0229C65.1571 25.3049 65.9881 23.6999 66.4831 23.2019C66.9481 22.7369 67.5931 22.5059 68.4211 22.5059C70.1101 22.5059 72.2161 23.4509 74.7331 25.3379C77.1181 27.1259 78.4111 28.3859 78.6091 29.1149V29.1659L78.6121 29.1599ZM60.6211 36.5159C58.5661 36.7139 56.8771 37.1789 55.5511 37.9079C52.6681 39.1679 49.7851 40.4279 46.9021 41.6849C43.7881 43.3079 42.2311 44.8979 42.2311 46.4549V46.8029L42.2821 47.0999L42.3811 47.4479C43.0111 49.0049 46.5901 49.7849 53.1181 49.7849C53.5831 49.7849 54.4771 49.7699 55.8031 49.7339C57.6241 44.5649 59.2321 40.1579 60.6241 36.5129L60.6211 36.5159ZM62.3611 76.1279C62.8261 76.1279 63.3061 76.1459 63.8011 76.1789C64.3651 76.2119 64.9261 76.2299 65.4901 76.2299C69.9631 76.2299 73.1761 75.2849 75.1321 73.3979C76.9531 71.6759 77.8651 68.8589 77.8651 64.9499C77.8651 64.5509 77.8471 64.1549 77.8141 63.7559L77.7631 63.3569C77.3311 61.7669 74.5321 60.5579 69.3631 59.7299C68.7001 59.6309 68.0221 59.5469 67.3261 59.4809C66.0001 63.6569 64.6081 68.2619 63.1501 73.2989C62.8831 74.2619 62.6191 75.2039 62.3551 76.1309L62.3611 76.1279Z" fill="white"/>
</svg>
