<?xml version="1.0" standalone="no"?>
<!DOCTYPE svg PUBLIC "-//W3C//DTD SVG 20010904//EN"
 "http://www.w3.org/TR/2001/REC-SVG-20010904/DTD/svg10.dtd">
<svg version="1.0" xmlns="http://www.w3.org/2000/svg"
 width="28.000000pt" height="24.000000pt" viewBox="0 0 28.000000 24.000000"
 preserveAspectRatio="xMidYMid meet">

<g transform="translate(0.000000,24.000000) scale(0.100000,-0.100000)"
fill="#000000" stroke="none">
<path d="M36 219 c-20 -16 -26 -29 -26 -62 0 -37 5 -46 63 -99 34 -32 64 -58
67 -58 3 0 33 26 67 58 57 53 63 62 63 98 0 69 -57 104 -108 68 -21 -15 -25
-15 -41 0 -24 22 -53 20 -85 -5z m86 -34 c6 -14 14 -25 18 -25 4 0 12 11 18
25 25 54 103 19 88 -40 -6 -22 -90 -105 -106 -105 -16 0 -100 83 -106 105 -15
59 63 94 88 40z"/>
</g>
</svg>
