<?xml version="1.0" standalone="no"?>
<!DOCTYPE svg PUBLIC "-//W3C//DTD SVG 20010904//EN"
 "http://www.w3.org/TR/2001/REC-SVG-20010904/DTD/svg10.dtd">
<svg version="1.0" xmlns="http://www.w3.org/2000/svg"
 width="173.000000pt" height="142.000000pt" viewBox="0 0 173.000000 142.000000"
 preserveAspectRatio="xMidYMid meet">

<g transform="translate(0.000000,142.000000) scale(0.100000,-0.100000)">
<path fill="#C4020E" d="M718 1311 c-78 -25 -134 -60 -190 -118 -102 -105 -158 -238 -158
-377 0 -192 83 -336 351 -610 106 -108 150 -147 165 -144 12 2 32 29 54 73 36
71 90 131 235 260 94 84 155 163 204 265 34 71 36 80 36 180 0 99 -2 109 -33
172 -60 122 -201 237 -352 289 -92 31 -235 36 -312 10z m212 -153 c0 -16 -13
-42 -32 -65 -18 -21 -32 -39 -33 -40 0 -1 -12 -4 -28 -8 -25 -7 -27 -5 -27 20
0 19 14 43 45 76 25 26 45 56 45 66 1 32 30 -16 30 -49z m-155 -87 c-6 -51
-26 -91 -46 -91 -5 0 -13 10 -20 21 -8 17 -7 35 6 81 9 33 14 72 11 87 -6 26
-6 25 25 -8 29 -32 31 -36 24 -90z m300 33 c-9 -14 -28 -29 -43 -35 -15 -5
-36 -14 -47 -19 -11 -6 -32 -7 -48 -2 l-28 7 20 26 c12 16 38 31 64 38 25 6
55 19 68 30 24 19 24 19 27 0 2 -11 -4 -31 -13 -45z m-425 -54 c34 -18 60
-160 29 -160 -21 0 -46 40 -57 92 -7 31 -20 62 -28 68 -36 31 -1 31 56 0z
m569 -23 c-19 -34 -54 -48 -113 -44 -64 4 -98 26 -77 50 8 11 35 14 105 13 86
-1 93 -2 85 -19z m-232 -18 c74 -36 118 -137 93 -214 -16 -47 -66 -104 -107
-121 -75 -32 -173 -8 -226 56 -23 27 -47 86 -47 115 0 55 48 132 105 166 42
26 126 25 182 -2z m193 -84 c18 -13 49 -30 68 -36 l35 -12 -24 -13 c-34 -19
-80 -17 -109 6 -14 11 -30 20 -36 20 -9 0 -34 41 -34 55 0 16 71 1 100 -20z
m-580 -15 c33 -18 77 -69 82 -95 5 -22 2 -25 -23 -25 -21 0 -37 11 -61 41 -18
23 -46 48 -63 57 -28 14 -28 16 -10 23 28 11 53 11 75 -1z m545 -66 c9 -4 25
-25 37 -48 11 -22 32 -53 46 -68 l26 -28 -31 0 c-17 0 -38 3 -47 6 -27 10 -71
86 -68 117 3 28 9 31 37 21z m-470 -90 c28 -7 54 -29 55 -47 0 -18 -46 -24
-80 -10 -19 8 -57 18 -85 21 l-50 7 35 23 c35 23 54 24 125 6z m440 -24 c14
-15 16 -30 12 -62 -3 -25 0 -59 8 -80 16 -47 4 -49 -39 -5 -29 28 -33 38 -31
82 2 51 12 85 25 85 4 0 15 -9 25 -20z m-295 -91 c0 -18 -47 -39 -88 -39 -23
0 -58 -7 -77 -14 l-35 -15 20 38 c20 41 36 51 78 51 15 0 33 4 41 9 15 10 61
-13 61 -30z m192 -60 c-18 -31 -32 -68 -32 -81 l-1 -23 -19 24 c-11 13 -20 35
-20 50 0 37 35 103 63 118 19 10 23 9 32 -9 7 -16 2 -33 -23 -79z m-82 50 c0
-23 -22 -48 -65 -73 -24 -15 -49 -35 -55 -46 -15 -29 -30 -25 -29 8 1 42 11
58 54 91 39 29 95 41 95 20z"/>
<path fill="#C4020E" d="M845 938 c-35 -19 -55 -52 -55 -91 0 -31 7 -46 34 -73 46 -46 91 -47
141 -3 38 34 46 74 23 124 -21 47 -96 69 -143 43z m96 -75 c10 -28 -16 -63
-46 -63 -29 0 -55 34 -48 61 11 42 79 43 94 2z"/>
</g>
</svg>
