<?xml version="1.0" standalone="no"?>
<!DOCTYPE svg PUBLIC "-//W3C//DTD SVG 20010904//EN"
 "http://www.w3.org/TR/2001/REC-SVG-20010904/DTD/svg10.dtd">
<svg version="1.0" xmlns="http://www.w3.org/2000/svg"
 width="467.000000pt" height="219.000000pt" viewBox="0 0 467.000000 219.000000"
 preserveAspectRatio="xMidYMid meet">

<g transform="translate(0.000000,219.000000) scale(0.100000,-0.100000)"
fill="#000000" stroke="none">
<path d="M3065 1875 l-25 -24 0 -298 c0 -174 4 -313 10 -335 14 -50 55 -97
105 -119 75 -34 220 -21 292 27 l23 14 -26 43 c-15 23 -28 43 -29 45 -2 2 -26
-4 -54 -14 -62 -20 -113 -13 -147 21 -23 23 -24 28 -24 190 l0 165 119 0 c131
0 131 0 131 65 0 54 -26 65 -147 65 l-103 0 0 80 c0 77 -1 81 -26 90 -42 16
-73 11 -99 -15z"/>
<path d="M357 1730 c-154 -39 -257 -169 -257 -325 0 -125 61 -226 172 -285 55
-30 74 -35 153 -38 119 -5 187 19 261 92 87 88 119 229 78 350 -23 67 -100
147 -174 180 -67 30 -170 42 -233 26z m160 -135 c50 -21 72 -42 94 -90 22 -48
25 -142 5 -188 -24 -59 -111 -117 -176 -117 -36 0 -93 23 -125 51 -71 62 -87
195 -33 277 48 72 152 102 235 67z"/>
<path d="M1142 1730 c-57 -12 -138 -57 -169 -95 -15 -16 -38 -55 -52 -85 l-26
-55 -3 -327 -3 -328 70 0 71 0 0 160 c0 88 4 160 9 160 5 0 15 -7 22 -17 29
-34 111 -63 181 -63 162 0 281 96 309 249 21 123 5 198 -64 291 -66 89 -217
137 -345 110z m189 -156 c51 -35 79 -95 79 -167 0 -67 -12 -102 -48 -140 -122
-130 -332 -41 -332 139 0 160 173 257 301 168z"/>
</g>
<g transform="translate(0.000000,219.000000) scale(0.100000,-0.100000)"
fill="#000000" stroke="none">
<path d="M1949 1726 c-151 -40 -251 -170 -250 -326 0 -135 62 -232 191 -301
39 -21 59 -24 150 -24 98 0 108 2 154 29 119 70 176 156 184 280 4 66 2 78
-31 146 -53 114 -113 166 -222 195 -70 18 -113 18 -176 1z m179 -157 c150 -73
125 -305 -39 -349 -67 -18 -159 13 -198 68 -115 161 58 367 237 281z"/>
</g>
<g transform="translate(0.000000,219.000000) scale(0.100000,-0.100000)"
fill="#C80C22" stroke="none">
<path d="M1965 1581 c-183 -83 -148 -332 52 -375 76 -17 177 46 209 130 60
159 -106 316 -261 245z m123 -107 c33 -23 45 -60 31 -101 -13 -40 -34 -53 -88
-53 -74 0 -106 79 -55 139 30 36 75 41 112 15z"/>
</g>

<g transform="translate(0.000000,219.000000) scale(0.100000,-0.100000)"
fill="#FFC300" stroke="none">
<path d="M1971 1465 c-39 -44 -40 -83 -5 -124 21 -26 33 -31 68 -31 51 0 81
20 96 64 13 41 2 75 -36 105 -42 33 -86 28 -123 -14z"/>
</g>
<g transform="translate(0.000000,219.000000) scale(0.100000,-0.100000)"
fill="#000000" stroke="none">
<path d="M2688 1726 c-65 -18 -116 -60 -144 -120 -23 -49 -24 -59 -24 -288 l0
-238 69 0 69 0 4 218 c3 190 5 221 22 248 10 17 27 36 38 43 33 20 118 24 171
8 44 -14 48 -14 57 3 16 30 12 78 -9 99 -37 37 -164 51 -253 27z"/>
<path d="M3752 1730 c-59 -12 -137 -57 -174 -99 -57 -65 -83 -136 -82 -226 0
-103 27 -166 98 -233 130 -123 348 -125 478 -4 72 67 103 138 103 237 0 71 -4
88 -33 147 -39 79 -93 129 -171 159 -64 24 -156 32 -219 19z m161 -134 c44
-18 94 -77 108 -128 24 -92 -20 -202 -96 -242 -61 -32 -144 -28 -197 10 -99
70 -116 219 -35 311 17 20 45 42 62 49 39 17 117 17 158 0z"/>
<path d="M4196 1184 c-22 -21 -20 -67 2 -87 23 -21 66 -22 86 -1 23 22 21 81
-3 94 -29 15 -67 12 -85 -6z m88 -27 c13 -35 -2 -61 -36 -65 -29 -4 -58 21
-58 48 0 53 77 67 94 17z"/>
<path d="M4217 1173 c-10 -10 -8 -63 2 -63 5 0 11 6 14 13 3 8 9 6 19 -7 14
-17 15 -16 15 15 0 41 -28 64 -50 42z m35 -18 c0 -5 -5 -11 -11 -13 -6 -2 -11
4 -11 13 0 9 5 15 11 13 6 -2 11 -8 11 -13z"/>
</g>
<g transform="translate(0.000000,219.000000) scale(0.100000,-0.100000)"
fill="#C80C22" stroke="none">
<path d="M2036 2015 c-15 -30 -48 -73 -74 -95 -62 -55 -82 -87 -82 -134 0 -36
1 -38 26 -32 15 4 39 9 54 13 18 3 30 13 34 27 3 12 25 40 49 63 54 51 63 88
42 161 -9 29 -17 52 -19 52 -2 0 -16 -25 -30 -55z"/>
<path d="M1737 1956 c4 -42 0 -72 -22 -139 -27 -87 -27 -109 2 -154 l15 -22
39 32 c29 24 39 40 39 62 0 17 7 51 15 77 21 69 -1 125 -69 179 l-25 19 6 -54z"/>
<path d="M2374 1972 c-16 -25 -120 -78 -170 -87 -54 -8 -99 -37 -119 -75 -9
-18 -15 -33 -13 -34 2 -1 25 -7 52 -14 42 -11 51 -10 66 3 9 8 39 22 67 30 73
22 100 47 119 111 18 61 17 97 -2 66z"/>
<path d="M1487 1788 c34 -37 53 -85 69 -166 15 -78 30 -104 74 -127 25 -13 26
-12 44 37 12 34 14 53 7 57 -6 4 -17 35 -25 70 -18 76 -49 113 -114 136 -66
22 -80 20 -55 -7z"/>
<path d="M2305 1756 c-17 -7 -36 -20 -43 -28 -10 -13 -7 -20 24 -43 36 -27 81
-36 201 -38 36 -1 89 36 124 85 21 29 22 31 3 24 -43 -17 -123 -18 -192 -2
-84 19 -79 19 -117 2z"/>
<path d="M2408 1592 c-16 -2 -28 -6 -28 -10 0 -21 35 -92 45 -92 7 0 29 -11
50 -25 20 -15 38 -25 40 -23 1 2 5 28 9 59 5 51 4 58 -17 71 -26 17 -61 24
-99 20z"/>
<path d="M1555 1404 c0 -83 0 -84 29 -94 16 -5 40 -10 54 -10 20 0 23 4 18 23
-3 12 -6 36 -6 53 0 24 -5 33 -22 38 -13 3 -34 21 -48 39 l-25 34 0 -83z"/>
<path d="M2418 1359 c-2 -36 1 -53 10 -57 7 -2 26 -31 42 -63 16 -31 34 -60
40 -64 6 -4 10 30 10 98 l0 105 -34 16 c-56 26 -64 22 -68 -35z"/>
<path d="M1504 1220 c-17 -27 -26 -46 -19 -43 7 2 45 -9 83 -26 39 -17 84 -31
101 -31 31 0 84 19 79 29 -22 46 -56 81 -79 81 -15 0 -46 9 -70 20 -24 11 -48
19 -54 19 -5 0 -24 -22 -41 -49z"/>
<path d="M2359 1193 c-20 -32 -23 -48 -20 -117 2 -45 9 -93 18 -109 12 -25 94
-87 114 -87 5 0 1 17 -8 38 -12 27 -16 65 -15 144 2 101 0 108 -24 137 -14 17
-30 31 -34 31 -5 0 -19 -17 -31 -37z"/>
<path d="M1808 1089 c-2 -6 -35 -14 -74 -19 -80 -8 -103 -18 -134 -57 -17 -22
-50 -86 -50 -98 0 -1 23 9 50 23 38 19 73 26 143 31 97 6 136 21 157 61 9 17
5 22 -39 45 -30 15 -51 20 -53 14z"/>
<path d="M2220 1073 c-25 -14 -44 -29 -42 -34 1 -6 -14 -41 -34 -78 -43 -77
-42 -109 4 -180 24 -38 27 -40 30 -19 7 50 35 121 69 169 40 59 51 106 32 141
l-14 25 -45 -24z"/>
<path d="M1984 1015 c-3 -8 -32 -31 -64 -50 -36 -22 -62 -46 -70 -65 -11 -28
-16 -137 -6 -147 2 -3 12 9 20 25 18 35 84 91 141 120 52 26 81 59 88 100 l7
32 -56 0 c-39 0 -56 -4 -60 -15z"/>
</g>
</svg>
