<svg width="219" height="284" viewBox="0 0 219 284" fill="none" xmlns="http://www.w3.org/2000/svg">
<path d="M218.772 218.93C218.772 216.75 218.782 214.56 218.752 212.39V212.09C218.722 210.06 218.692 207.91 218.232 205.38C216.422 195.45 208.802 189.03 198.822 189.03H139.302V188.35C139.302 182.06 135.612 176.96 130.182 174.96C151.842 157.03 188.982 122.09 196.052 88.2C196.712 85.14 197.042 82 197.042 78.86C197.042 61.91 187.602 46.71 172.402 39.19C171.022 38.49 166.362 36.21 158.902 33.64C158.902 15.05 142.952 0 123.252 0C104.662 0 89.6123 15.05 89.6123 33.64C89.6123 33.83 89.6123 34.02 89.6123 34.22C85.3623 33.18 80.9523 32.64 76.4523 32.64C46.2823 32.64 21.7423 57.19 21.7423 87.36C21.7423 117.53 46.2823 142.08 76.4523 142.08H82.2423C88.0923 148.02 94.6323 153.55 101.692 158.46C101.892 159.37 102.142 162.47 99.0123 169.04L98.7523 169.59L97.7823 171.75V182.89C96.4523 183.16 95.1523 183.5 93.8823 183.93C91.7523 178.32 86.3623 174.38 79.8523 174.31H79.6823C75.5823 174.31 71.5823 175.99 68.6823 178.91C65.9523 181.67 64.4223 185.25 64.3523 189.04H59.9323V188.36C59.9323 180.27 53.8523 174.12 45.8023 174.06H45.6723C37.6423 174.06 31.3423 180.34 31.3323 188.36V189.57C29.4823 189.15 27.5623 188.95 25.5723 188.95C24.0823 188.95 22.5323 189.07 20.9723 189.3C13.4923 190.42 7.04226 194.8 3.28226 201.3C-0.467742 207.79 -1.02774 215.53 1.72226 222.54C5.42226 231.96 14.7323 238.06 25.4323 238.08H37.9323C34.7623 240.47 32.7623 244.24 32.7023 248.61C32.6423 253.03 34.6723 256.96 37.9023 259.46C37.9023 262.68 37.9023 265.9 37.9023 269.12C37.9023 275.13 40.7323 278.66 43.1123 280.55C45.7823 282.68 48.9223 283.81 52.2123 283.81H165.752C167.802 283.81 169.842 283.37 171.822 282.5C177.022 280.21 180.132 275.3 180.132 269.36C180.132 266.29 180.132 263.21 180.132 260.13C183.902 257.71 186.342 253.46 186.262 248.6C186.182 244.28 184.082 240.49 180.872 238.09H204.432C206.522 238.09 208.602 237.63 210.632 236.72C215.772 234.38 218.812 229.51 218.772 223.68C218.772 222.18 218.772 220.45 218.772 218.94V218.93Z" fill="#DA291C"/>
<path d="M107.932 179.4V173.92L108.192 173.37C116.592 155.75 108.302 150.68 108.222 150.63C83.4423 133.64 70.0322 112.26 65.2923 96.81C65.4622 117.16 76.6723 129.32 76.7923 129.45L76.9223 129.58V131.92H76.4622C51.8923 131.92 31.9023 111.93 31.9023 87.35C31.9023 62.77 51.8923 42.78 76.4622 42.78C88.5122 42.78 99.8023 47.52 108.262 56.12C109.332 57.1 110.342 58.22 111.262 59.42C112.452 61.05 114.252 63.5 114.362 63.64C115.542 65.18 117.302 66.05 119.212 66.05C122.582 66.05 125.322 63.31 125.322 59.94C125.322 58.62 124.902 57.36 124.112 56.3L121.012 52.49C118.322 49.3 114.142 44.44 112.102 42.08C109.302 39.23 107.752 35.44 107.752 31.42C107.752 28.33 108.872 25.03 110.862 22.23H101.852L102.342 21.51L102.452 21.35C104.642 17.98 111.042 10.15 123.252 10.15C136.072 10.15 144.392 16.63 144.562 26.69C148.082 28.17 149.442 31.03 148.492 34.98L148.382 35.42L147.942 35.32C147.942 35.32 143.222 34.27 143.012 34.23C142.922 34.21 142.812 34.2 142.712 34.2C141.402 34.2 140.492 35.6 140.492 36.86C140.492 38.05 141.292 39.09 142.452 39.39L143.262 39.59C158.952 43.52 167.822 48.23 167.902 48.28C179.612 54.07 186.892 65.79 186.892 78.85C186.892 81.27 186.632 83.7 186.132 86.06C177.022 129.75 109.342 178.39 108.652 178.88L107.932 179.39V179.4Z" fill="#FFD100"/>
<path d="M25.4523 219.98C26.9523 219.98 28.3823 219.56 29.5823 218.9C31.0823 218.06 33.5323 217.7 35.0323 219.2C36.7123 220.88 36.4723 223.93 34.4923 225.31C31.9823 227.11 28.8023 228.06 25.4523 228.06C17.4323 228.06 10.1223 222.43 10.1223 213.63V213.45C10.1223 204.65 17.4223 199.02 25.4523 199.02C28.8023 199.02 31.9823 199.98 34.4923 201.77C36.4723 203.15 36.7123 206.2 35.0323 207.88C33.5323 209.38 31.0823 209.02 29.5823 208.18C28.3823 207.52 26.9523 207.1 25.4523 207.1C21.8623 207.1 18.6223 209.56 18.6223 213.45V213.63C18.6223 217.52 21.8523 219.98 25.4523 219.98Z" fill="#FFD100"/>
<path d="M60.4723 212.62C60.4723 208.97 57.8423 207.11 55.3223 207.11C52.8023 207.11 49.8123 208.49 49.8123 212.74V224.12C49.8123 226.22 47.8923 227.83 45.6223 227.83C43.3523 227.83 41.4923 226.15 41.4323 224.12V187.78C41.4923 185.74 43.4123 184.07 45.6223 184.07C47.8323 184.07 49.8123 185.69 49.8123 187.78V203.95C50.9523 200.48 54.9623 199.04 57.5923 199.04C64.9523 199.04 68.8522 203.89 68.8522 212.33V224.13C68.8522 226.23 66.9323 227.84 64.6623 227.84C62.3923 227.84 60.5323 226.16 60.4723 224.13V212.63V212.62Z" fill="#FFD100"/>
<path d="M79.6623 184.36C82.4723 184.36 84.7523 186.46 84.7523 189.21C84.7523 191.96 82.4723 194.12 79.6623 194.12C76.8523 194.12 74.4523 191.96 74.4523 189.21C74.4523 186.46 76.8423 184.36 79.6623 184.36ZM83.8522 224.12C83.8522 226.22 81.9323 227.83 79.6623 227.83C77.3923 227.83 75.5323 226.15 75.4723 224.12V202.98C75.5323 200.94 77.4523 199.27 79.6623 199.27C81.8723 199.27 83.8522 200.89 83.8522 202.98V224.12Z" fill="#FFD100"/>
<path d="M104.872 219.98C106.372 219.98 107.802 219.56 109.002 218.9C110.502 218.06 112.952 217.7 114.452 219.2C116.132 220.88 115.892 223.93 113.912 225.31C111.392 227.11 108.222 228.06 104.872 228.06C96.8523 228.06 89.5423 222.43 89.5423 213.63V213.45C89.5423 204.65 96.8423 199.02 104.872 199.02C108.222 199.02 111.402 199.98 113.912 201.77C115.882 203.15 116.122 206.2 114.452 207.88C112.952 209.38 110.502 209.02 109.002 208.18C107.802 207.52 106.372 207.1 104.872 207.1C101.282 207.1 98.0423 209.56 98.0423 213.45V213.63C98.0423 217.52 101.272 219.98 104.872 219.98Z" fill="#FFD100"/>
<path d="M129.162 216.51V224.11C129.162 226.21 127.242 227.82 124.972 227.82C122.702 227.82 120.842 226.14 120.782 224.11V187.77C120.842 185.73 122.762 184.06 124.972 184.06C127.182 184.06 129.162 185.68 129.162 187.77V207.29L135.692 200.7C137.012 199.2 139.462 198.9 141.082 200.22C142.642 201.48 143.052 203.87 141.622 205.55L135.092 211.9L144.312 221.54C145.872 223.22 145.752 225.73 144.072 226.99C142.572 228.25 139.762 228.07 138.562 226.63L129.162 216.51Z" fill="#FFD100"/>
<path d="M172.342 225.55C169.532 227.41 165.992 228.06 162.702 228.06C154.682 228.06 148.092 222.25 148.092 213.45C148.092 204.65 154.682 199.02 162.702 199.02C170.722 199.02 177.012 204.89 177.012 213.69C177.012 215.19 175.752 216.26 174.442 216.26H156.422C156.842 219.49 160.372 220.87 163.302 220.87C164.982 220.87 166.412 220.75 168.152 219.55C170.072 218.23 172.222 218.59 173.422 219.97C174.982 221.77 174.382 224.34 172.342 225.54V225.55ZM168.632 211.06C168.212 207.65 165.882 205.97 162.762 205.97C159.642 205.97 157.252 207.53 156.532 211.06H168.622H168.632Z" fill="#FFD100"/>
<path d="M190.352 203.64C191.852 200.83 195.142 198.97 198.432 198.97C204.722 198.97 208.732 202.86 208.732 210.83V224.12C208.732 226.22 206.812 227.83 204.542 227.83C202.272 227.83 200.412 226.15 200.352 224.12V212.62C200.352 208.91 198.312 207.05 195.502 207.05C192.692 207.05 190.352 208.49 190.352 212.74V224.12C190.352 226.22 188.432 227.83 186.162 227.83C183.892 227.83 182.032 226.15 181.972 224.12V202.98C182.032 200.94 183.952 199.27 186.162 199.27C188.372 199.27 190.352 200.89 190.352 202.98V203.64Z" fill="#FFD100"/>
<path d="M47.8723 245.4V237.92C47.9323 235.84 49.8923 234.12 52.1623 234.12C54.4323 234.12 56.4523 235.78 56.4523 237.92V245.4H59.7023C61.4223 245.4 62.7723 246.93 62.7723 248.77C62.7723 250.61 61.4223 252.08 59.7023 252.15H56.4523V270.54C56.4523 272.69 54.4923 274.34 52.1623 274.34C49.8323 274.34 47.9323 272.63 47.8723 270.54V252.15H45.5423C43.8323 252.09 42.4723 250.55 42.4723 248.77C42.4723 246.99 43.8223 245.4 45.5423 245.4H47.8723Z" fill="#FFD100"/>
<path d="M87.9923 249.57C87.6823 251.72 85.6623 252.69 83.7623 252.69C83.1523 252.69 82.2323 252.63 81.6823 252.63C76.9023 252.63 75.3023 256.31 75.1823 263.48V270.53C75.1823 272.68 73.2223 274.33 70.8923 274.33C68.5623 274.33 66.6623 272.62 66.6023 270.53V248.89C66.6623 246.8 68.6223 245.09 70.8923 245.09C73.1623 245.09 75.1823 246.75 75.1823 248.89V252.02C76.7723 246.69 79.7823 244.84 82.7223 244.84C85.6623 244.84 88.5423 245.51 87.9923 249.56V249.57Z" fill="#FFD100"/>
<path d="M144.052 248.89C144.112 246.8 146.072 245.09 148.342 245.09C150.612 245.09 152.632 246.75 152.632 248.89V270.53C152.632 272.68 150.672 274.33 148.342 274.33C146.012 274.33 144.112 272.62 144.052 270.53V269.98C142.212 272.98 138.712 274.58 135.462 274.58C128.172 274.58 121.542 269.18 121.542 259.68C121.542 250.18 128.162 244.84 135.462 244.84C137.302 244.84 141.592 245.64 144.052 249.44V248.89ZM137.122 266.98C140.992 266.98 144.112 263.55 144.112 259.74C144.112 255.93 140.992 252.51 137.122 252.51C132.832 252.51 130.372 255.94 130.372 259.74C130.372 263.54 132.822 266.98 137.122 266.98Z" fill="#FFD100"/>
<path d="M161.612 245.4V237.92C161.672 235.84 163.632 234.12 165.902 234.12C168.172 234.12 170.192 235.78 170.192 237.92V245.4H173.442C175.162 245.4 176.512 246.93 176.512 248.77C176.512 250.61 175.162 252.08 173.442 252.15H170.192V270.54C170.192 272.69 168.232 274.34 165.902 274.34C163.572 274.34 161.672 272.63 161.612 270.54V252.15H159.282C157.572 252.09 156.212 250.55 156.212 248.77C156.212 246.99 157.562 245.4 159.282 245.4H161.612Z" fill="#FFD100"/>
<path d="M113.812 272.01C110.932 273.91 107.312 274.59 103.942 274.59C95.7223 274.59 88.9823 268.64 88.9823 259.63C88.9823 250.62 95.7323 244.85 103.942 244.85C112.152 244.85 118.592 250.86 118.592 259.87C118.592 261.4 117.302 262.51 115.952 262.51H97.4923C97.9223 265.82 101.542 267.23 104.552 267.23C106.262 267.23 107.732 267.11 109.512 265.88C111.472 264.53 113.682 264.9 114.912 266.31C116.502 268.15 115.892 270.78 113.812 272.01ZM110.012 257.17C109.582 253.68 107.192 251.96 104.002 251.96C100.812 251.96 98.3623 253.55 97.6223 257.17H110.012Z" fill="#FFD100"/>
</svg>
