<svg width="228" height="48" viewBox="0 0 228 48" fill="none" xmlns="http://www.w3.org/2000/svg">
<g id="Layer_1-2">
<path id="Vector" fill-rule="evenodd" clip-rule="evenodd" d="M228 18.7054C227.96 16.2561 226.671 14.1191 224.73 12.8864C224.464 9.78889 222.539 7.33967 219.59 6.41121C218.801 6.16308 217.987 6.03502 217.174 6.03502C213.565 6.03502 210.601 8.51626 209.836 11.918H164.663C164.099 9.28464 162.23 7.1956 159.596 6.38719C158.831 6.15508 158.041 6.03502 157.26 6.03502C152.54 6.03502 148.705 9.46073 148.037 14.055C147.964 14.1191 147.908 14.1911 147.836 14.2551C145.741 12.5183 143.027 11.5738 140.006 11.5738H108.599V11.2216C108.599 6.98749 105.393 3.76188 101.148 3.72186H101.076C96.8305 3.72186 93.5118 7.01951 93.5118 11.2216V11.5818H85.1587C85.0781 7.28364 81.6386 3.90595 77.2324 3.85793H77.1438C74.9851 3.85793 72.8666 4.73837 71.3441 6.26713C69.9023 7.71586 69.0968 9.58879 69.0565 11.5818H66.7205V11.2216C66.7205 6.97949 63.5065 3.75388 59.2615 3.72186H59.197C54.96 3.72186 51.6333 7.01951 51.6252 11.2216V11.8539C50.6506 11.6378 49.6356 11.5258 48.5804 11.5258C47.791 11.5258 46.9774 11.5898 46.1558 11.7099C43.7634 12.07 41.5805 13.0545 39.7842 14.5273C38.7773 11.6218 36.6749 9.18859 33.8154 7.77989C33.6382 7.69185 33.3079 7.53177 32.8488 7.33167C31.6485 3.11356 27.621 0 22.8443 0C18.6798 0 15.1114 2.55328 13.6212 6.16308C6.08161 6.33917 0 12.4942 0 20.026C0 27.5578 6.07356 33.7129 13.6131 33.8969L14.4348 35.1936V48L23.2632 41.7489C24.3345 40.9885 31.3505 35.8899 36.0789 29.3747C38.0926 34.1771 42.8452 37.2026 48.4032 37.2106H142.994C144.356 37.2106 145.701 36.9145 146.998 36.3302C148.262 35.7619 149.342 34.9535 150.188 33.977C150.606 34.4572 151.025 34.8414 151.372 35.1216C153.096 36.4902 155.141 37.2106 157.284 37.2106L217.166 37.1786C218.245 37.1786 219.325 36.9465 220.364 36.4902C223.111 35.2896 224.746 32.7204 224.746 29.5988C224.746 27.99 224.746 26.3732 224.746 24.7564C226.735 23.4837 228.024 21.2586 227.984 18.7134L228 18.7054Z" fill="#DA291C"/>
<path id="Vector_2" d="M19.9364 37.3947V36.3621L19.9847 36.2581C21.5797 32.9364 20.0089 31.9759 19.9847 31.9679C15.2806 28.7583 12.7351 24.7323 11.833 21.8109C11.8652 25.6528 13.9917 27.9419 14.0159 27.9739L14.0401 27.998V28.4382H13.9515C9.28755 28.4382 5.49359 24.6683 5.49359 20.026C5.49359 15.3836 9.28755 11.6138 13.9515 11.6138C16.2391 11.6138 18.3818 12.5102 19.9928 14.127C20.1942 14.3111 20.3875 14.5272 20.5647 14.7513C20.7903 15.0555 21.1286 15.5197 21.1527 15.5517C21.3783 15.8399 21.7085 16.008 22.071 16.008C22.7074 16.008 23.231 15.4877 23.231 14.8554C23.231 14.6073 23.1504 14.3671 22.9974 14.167L22.4093 13.4467C21.9019 12.8464 21.1044 11.9259 20.7178 11.4777C20.1861 10.9414 19.8961 10.2211 19.8961 9.46869C19.8961 8.8844 20.1056 8.26009 20.4842 7.73182H18.7765L18.8731 7.59576L18.8973 7.56374C19.3162 6.93142 20.5325 5.45068 22.8443 5.45068C25.277 5.45068 26.8558 6.6753 26.888 8.57224C27.5566 8.85238 27.8143 9.38865 27.6371 10.133L27.6129 10.2131L27.5324 10.1971C27.5324 10.1971 26.6383 9.99696 26.598 9.98895C26.5819 9.98895 26.5577 9.98895 26.5416 9.98895C26.2919 9.98895 26.1227 10.2531 26.1227 10.4932C26.1227 10.7173 26.2758 10.9174 26.4933 10.9734L26.6463 11.0135C29.6267 11.7578 31.3102 12.6463 31.3263 12.6543C33.5496 13.7508 34.935 15.9599 34.935 18.4252C34.935 18.8814 34.8867 19.3376 34.79 19.7858C33.0582 28.03 20.2103 37.2026 20.0814 37.2986L19.9445 37.3947H19.9364Z" fill="#FFD100"/>
<g id="Group">
<path id="Vector_3" d="M48.524 27.7497C49.3053 27.7497 50.0545 27.5336 50.6828 27.1894C51.4641 26.7572 52.7449 26.5651 53.5262 27.3415C54.4042 28.2139 54.2753 29.7987 53.2443 30.5111C51.9313 31.4395 50.272 31.9438 48.5159 31.9438C44.3273 31.9438 40.5092 29.0223 40.5092 24.4521V24.356C40.5092 19.7857 44.3273 16.8643 48.5159 16.8643C50.272 16.8643 51.9233 17.3605 53.2443 18.297C54.2753 19.0173 54.3962 20.5941 53.5262 21.4666C52.7449 22.2429 51.4641 22.0589 50.6828 21.6186C50.0545 21.2745 49.3053 21.0584 48.524 21.0584C46.6472 21.0584 44.9636 22.331 44.9636 24.356V24.4521C44.9636 26.4691 46.6472 27.7497 48.524 27.7497Z" fill="#FFD100"/>
<path id="Vector_4" d="M66.9541 23.924C66.9541 22.0271 65.5767 21.0666 64.2637 21.0666C62.9507 21.0666 61.388 21.7789 61.388 23.988V29.895C61.388 30.9835 60.3892 31.8159 59.197 31.8159C58.0049 31.8159 57.0382 30.9435 57.006 29.895V11.0296C57.0382 9.97302 58.0371 9.10059 59.197 9.10059C60.357 9.10059 61.388 9.94101 61.388 11.0296V19.4177C61.9841 17.6168 64.0784 16.8725 65.4558 16.8725C69.3062 16.8725 71.3361 19.3937 71.3361 23.7719V29.895C71.3361 30.9835 70.3372 31.8159 69.1451 31.8159C67.9529 31.8159 66.9863 30.9435 66.9541 29.895V23.932V23.924Z" fill="#FFD100"/>
<path id="Vector_5" d="M77.1599 9.25244C78.626 9.25244 79.8181 10.341 79.8181 11.7737C79.8181 13.2064 78.626 14.319 77.1599 14.319C75.6939 14.319 74.4373 13.1984 74.4373 11.7737C74.4373 10.349 75.6858 9.25244 77.1599 9.25244ZM79.3509 29.8868C79.3509 30.9753 78.3521 31.8077 77.1599 31.8077C75.9678 31.8077 75.0012 30.9353 74.977 29.8868V18.9133C75.0092 17.8567 76.008 16.9843 77.1599 16.9843C78.3118 16.9843 79.3509 17.8247 79.3509 18.9133V29.8868Z" fill="#FFD100"/>
<path id="Vector_6" d="M90.3623 27.7497C91.1436 27.7497 91.8927 27.5336 92.521 27.1894C93.3024 26.7572 94.5831 26.5651 95.3645 27.3415C96.2425 28.2139 96.1136 29.7987 95.0826 30.5111C93.7696 31.4395 92.1102 31.9438 90.3623 31.9438C86.1655 31.9438 82.3555 29.0223 82.3555 24.4521V24.356C82.3555 19.7857 86.1655 16.8643 90.3623 16.8643C92.1102 16.8643 93.7696 17.3605 95.0826 18.297C96.1136 19.0173 96.2425 20.5941 95.3645 21.4666C94.5831 22.2429 93.3024 22.0589 92.521 21.6186C91.8927 21.2745 91.1436 21.0584 90.3623 21.0584C88.4854 21.0584 86.7938 22.331 86.7938 24.356V24.4521C86.7938 26.4691 88.4854 27.7497 90.3623 27.7497Z" fill="#FFD100"/>
<path id="Vector_7" d="M103.25 25.941V29.887C103.25 30.9755 102.252 31.8079 101.059 31.8079C99.8673 31.8079 98.9007 30.9355 98.8685 29.887V11.0296C98.9007 9.97302 99.8995 9.10059 101.059 9.10059C102.219 9.10059 103.25 9.94101 103.25 11.0296V21.1626L106.658 17.7449C107.342 16.9685 108.631 16.8164 109.469 17.4968C110.283 18.1531 110.508 19.3937 109.751 20.2582L106.344 23.5558L111.161 28.5583C111.974 29.4308 111.91 30.7354 111.032 31.3837C110.25 32.0321 108.776 31.944 108.156 31.1996L103.242 25.949L103.25 25.941Z" fill="#FFD100"/>
<path id="Vector_8" d="M125.893 30.6394C124.427 31.5999 122.575 31.9441 120.859 31.9441C116.67 31.9441 113.223 28.9266 113.223 24.3643C113.223 19.802 116.662 16.8726 120.859 16.8726C125.056 16.8726 128.334 19.9221 128.334 24.4844C128.334 25.2608 127.674 25.821 126.989 25.821H117.572C117.79 27.4939 119.635 28.2142 121.173 28.2142C122.043 28.2142 122.8 28.1502 123.702 27.5339C124.701 26.8455 125.829 27.0376 126.457 27.75C127.271 28.6785 126.957 30.0231 125.893 30.6394ZM123.952 23.1157C123.735 21.3468 122.51 20.4744 120.883 20.4744C119.256 20.4744 118.007 21.2828 117.629 23.1157H123.944H123.952Z" fill="#FFD100"/>
<path id="Vector_9" d="M135.519 19.2655C136.301 17.8088 138.016 16.8403 139.74 16.8403C143.019 16.8403 145.121 18.8573 145.121 22.9954V29.8949C145.121 30.9834 144.122 31.8158 142.93 31.8158C141.738 31.8158 140.771 30.9434 140.739 29.8949V23.9319C140.739 22.0029 139.676 21.0424 138.202 21.0424C136.727 21.0424 135.511 21.7868 135.511 23.9959V29.9029C135.511 30.9914 134.512 31.8238 133.32 31.8238C132.128 31.8238 131.161 30.9514 131.129 29.9029V18.9294C131.161 17.8728 132.16 17.0004 133.32 17.0004C134.48 17.0004 135.511 17.8408 135.511 18.9294V19.2735L135.519 19.2655Z" fill="#FFD100"/>
<path id="Vector_10" d="M155.069 17.1525V13.3587C155.101 12.3021 156.1 11.4297 157.26 11.4297C158.42 11.4297 159.451 12.2701 159.451 13.3587V17.1525H161.11C161.988 17.1525 162.673 17.9289 162.673 18.8574C162.673 19.7859 161.988 20.5382 161.11 20.5703H159.451V29.8949C159.451 30.9835 158.452 31.8159 157.26 31.8159C156.068 31.8159 155.101 30.9434 155.069 29.8949V20.5703H153.877C153.007 20.5382 152.314 19.7619 152.314 18.8574C152.314 17.9529 153.007 17.1525 153.877 17.1525H155.069Z" fill="#FFD100"/>
<path id="Vector_11" d="M175.763 19.2658C175.601 20.3543 174.57 20.8505 173.604 20.8505C173.29 20.8505 172.822 20.8185 172.541 20.8185C170.1 20.8185 169.286 22.6835 169.222 26.3173V29.8951C169.222 30.9836 168.223 31.816 167.031 31.816C165.839 31.816 164.872 30.9436 164.84 29.8951V18.9216C164.872 17.8651 165.871 16.9926 167.031 16.9926C168.191 16.9926 169.222 17.833 169.222 18.9216V20.5064C170.035 17.801 171.566 16.8726 173.072 16.8726C174.578 16.8726 176.045 17.2167 175.763 19.2658Z" fill="#FFD100"/>
<path id="Vector_12" d="M189.593 30.6394C188.127 31.5999 186.274 31.9441 184.559 31.9441C180.37 31.9441 176.923 28.9266 176.923 24.3643C176.923 19.802 180.362 16.8726 184.559 16.8726C188.755 16.8726 192.034 19.9221 192.034 24.4844C192.034 25.2608 191.381 25.821 190.689 25.821H181.272C181.49 27.4939 183.334 28.2142 184.873 28.2142C185.743 28.2142 186.5 28.1502 187.402 27.5339C188.401 26.8455 189.529 27.0376 190.157 27.75C190.971 28.6785 190.656 30.0231 189.593 30.6394ZM187.652 23.1157C187.434 21.3468 186.21 20.4744 184.583 20.4744C182.956 20.4744 181.707 21.2828 181.329 23.1157H187.644H187.652Z" fill="#FFD100"/>
<path id="Vector_13" d="M205.599 18.9213C205.631 17.8648 206.63 16.9923 207.782 16.9923C208.934 16.9923 209.973 17.8327 209.973 18.9213V29.8948C209.973 30.9833 208.974 31.8157 207.782 31.8157C206.59 31.8157 205.623 30.9433 205.599 29.8948V29.6146C204.656 31.1354 202.876 31.9438 201.217 31.9438C197.495 31.9438 194.112 29.2064 194.112 24.388C194.112 19.5696 197.495 16.8643 201.217 16.8643C202.159 16.8643 204.342 17.2725 205.599 19.1934V18.9133V18.9213ZM202.063 28.0939C204.036 28.0939 205.631 26.349 205.631 24.42C205.631 22.4911 204.036 20.7542 202.063 20.7542C199.872 20.7542 198.623 22.4991 198.623 24.42C198.623 26.341 199.872 28.0939 202.063 28.0939Z" fill="#FFD100"/>
<path id="Vector_14" d="M215.015 17.1525V13.3587C215.047 12.3021 216.046 11.4297 217.206 11.4297C218.366 11.4297 219.397 12.2701 219.397 13.3587V17.1525H221.056C221.934 17.1525 222.619 17.9289 222.619 18.8574C222.619 19.7859 221.934 20.5382 221.056 20.5703H219.397V29.8949C219.397 30.9835 218.398 31.8159 217.206 31.8159C216.014 31.8159 215.047 30.9434 215.015 29.8949V20.5703H213.823C212.953 20.5382 212.26 19.7619 212.26 18.8574C212.26 17.9529 212.953 17.1525 213.823 17.1525H215.015Z" fill="#FFD100"/>
</g>
</g>
</svg>
