<?xml version="1.0" standalone="no"?>
<!DOCTYPE svg PUBLIC "-//W3C//DTD SVG 20010904//EN"
 "http://www.w3.org/TR/2001/REC-SVG-20010904/DTD/svg10.dtd">
<svg version="1.0" xmlns="http://www.w3.org/2000/svg"
 width="467.000000pt" height="219.000000pt" viewBox="0 0 467.000000 219.000000"
 preserveAspectRatio="xMidYMid meet">

<g transform="translate(0.000000,219.000000) scale(0.100000,-0.100000)"
fill="#FFFFFF" stroke="none">
<path d="M3065 1875 l-25 -24 0 -298 c0 -174 4 -313 10 -335 14 -50 55 -97
105 -119 75 -34 220 -21 292 27 l23 14 -26 43 c-15 23 -28 43 -29 45 -2 2 -26
-4 -54 -14 -62 -20 -113 -13 -147 21 -23 23 -24 28 -24 190 l0 165 119 0 c131
0 131 0 131 65 0 54 -26 65 -147 65 l-103 0 0 80 c0 77 -1 81 -26 90 -42 16
-73 11 -99 -15z"/>
<path d="M357 1730 c-154 -39 -257 -169 -257 -325 0 -125 61 -226 172 -285 55
-30 74 -35 153 -38 119 -5 187 19 261 92 87 88 119 229 78 350 -23 67 -100
147 -174 180 -67 30 -170 42 -233 26z m160 -135 c50 -21 72 -42 94 -90 22 -48
25 -142 5 -188 -24 -59 -111 -117 -176 -117 -36 0 -93 23 -125 51 -71 62 -87
195 -33 277 48 72 152 102 235 67z"/>
<path d="M1142 1730 c-57 -12 -138 -57 -169 -95 -15 -16 -38 -55 -52 -85 l-26
-55 -3 -327 -3 -328 70 0 71 0 0 160 c0 88 4 160 9 160 5 0 15 -7 22 -17 29
-34 111 -63 181 -63 162 0 281 96 309 249 21 123 5 198 -64 291 -66 89 -217
137 -345 110z m189 -156 c51 -35 79 -95 79 -167 0 -67 -12 -102 -48 -140 -122
-130 -332 -41 -332 139 0 160 173 257 301 168z"/>
</g>
<g transform="translate(0.000000,219.000000) scale(0.100000,-0.100000)"
fill="#FFFFFF" stroke="none">
<path d="M1949 1726 c-151 -40 -251 -170 -250 -326 0 -135 62 -232 191 -301
39 -21 59 -24 150 -24 98 0 108 2 154 29 119 70 176 156 184 280 4 66 2 78
-31 146 -53 114 -113 166 -222 195 -70 18 -113 18 -176 1z m179 -157 c150 -73
125 -305 -39 -349 -67 -18 -159 13 -198 68 -115 161 58 367 237 281z"/>
</g>
<g transform="translate(0.000000,219.000000) scale(0.100000,-0.100000)"
fill="#C80C22" stroke="none">
<path d="M1965 1581 c-183 -83 -148 -332 52 -375 76 -17 177 46 209 130 60
159 -106 316 -261 245z m123 -107 c33 -23 45 -60 31 -101 -13 -40 -34 -53 -88
-53 -74 0 -106 79 -55 139 30 36 75 41 112 15z"/>
</g>

<g transform="translate(0.000000,219.000000) scale(0.100000,-0.100000)"
fill="#FFC300" stroke="none">
<path d="M1971 1465 c-39 -44 -40 -83 -5 -124 21 -26 33 -31 68 -31 51 0 81
20 96 64 13 41 2 75 -36 105 -42 33 -86 28 -123 -14z"/>
</g>
<g transform="translate(0.000000,219.000000) scale(0.100000,-0.100000)"
fill="#FFFFFF" stroke="none">
<path d="M2688 1726 c-65 -18 -116 -60 -144 -120 -23 -49 -24 -59 -24 -288 l0
-238 69 0 69 0 4 218 c3 190 5 221 22 248 10 17 27 36 38 43 33 20 118 24 171
8 44 -14 48 -14 57 3 16 30 12 78 -9 99 -37 37 -164 51 -253 27z"/>
<path d="M3752 1730 c-59 -12 -137 -57 -174 -99 -57 -65 -83 -136 -82 -226 0
-103 27 -166 98 -233 130 -123 348 -125 478 -4 72 67 103 138 103 237 0 71 -4
88 -33 147 -39 79 -93 129 -171 159 -64 24 -156 32 -219 19z m161 -134 c44
-18 94 -77 108 -128 24 -92 -20 -202 -96 -242 -61 -32 -144 -28 -197 10 -99
70 -116 219 -35 311 17 20 45 42 62 49 39 17 117 17 158 0z"/>
<path d="M4196 1184 c-22 -21 -20 -67 2 -87 23 -21 66 -22 86 -1 23 22 21 81
-3 94 -29 15 -67 12 -85 -6z m88 -27 c13 -35 -2 -61 -36 -65 -29 -4 -58 21
-58 48 0 53 77 67 94 17z"/>
<path d="M4217 1173 c-10 -10 -8 -63 2 -63 5 0 11 6 14 13 3 8 9 6 19 -7 14
-17 15 -16 15 15 0 41 -28 64 -50 42z m35 -18 c0 -5 -5 -11 -11 -13 -6 -2 -11
4 -11 13 0 9 5 15 11 13 6 -2 11 -8 11 -13z"/>
<path d="M4372 1047 c-12 -13 -22 -28 -22 -34 0 -7 -13 -21 -29 -32 -50 -36
-62 -121 -21 -146 14 -8 3 -46 -18 -62 -13 -11 -18 -8 -28 17 -7 16 -24 35
-38 41 -36 17 -85 -14 -113 -71 -38 -73 -25 -142 30 -168 43 -21 77 1 104 68
28 70 51 78 55 18 2 -34 8 -45 31 -58 24 -13 30 -13 55 0 36 20 81 105 65 121
-14 14 -43 -4 -43 -28 0 -21 -31 -63 -47 -63 -8 0 -11 -4 -8 -10 3 -5 4 -10 0
-10 -16 0 -24 54 -14 107 15 84 17 88 45 104 42 22 74 87 74 152 0 45 -4 58
-19 67 -28 14 -35 13 -59 -13z m39 -94 c-6 -22 -20 -48 -31 -58 -19 -18 -20
-17 -20 3 0 11 7 27 15 36 17 17 20 43 5 48 -6 2 -3 13 7 27 16 24 17 24 26 4
5 -12 5 -35 -2 -60z m-85 -45 c-10 -39 -11 -40 -14 -15 -3 23 11 57 23 57 1 0
-3 -19 -9 -42z m-113 -132 c15 -12 15 -15 3 -26 -10 -7 -13 -22 -10 -39 7 -36
-34 -88 -61 -78 -38 15 -3 158 39 157 6 0 19 -7 29 -14z"/>
<path d="M3910 951 c-64 -63 -53 -113 46 -207 83 -80 93 -108 48 -143 -38 -30
-59 -34 -98 -17 -31 13 -36 20 -36 48 0 25 6 36 23 43 30 14 28 39 -4 43 -50
6 -87 -75 -59 -129 25 -46 126 -65 181 -32 27 16 59 75 59 109 0 31 -32 75
-84 114 -67 51 -84 86 -62 128 29 56 104 46 128 -17 8 -23 7 -24 -37 -17 -43
5 -46 4 -43 -16 7 -50 77 -49 103 2 32 61 -13 120 -92 120 -36 0 -50 -6 -73
-29z"/>
<path d="M3452 887 c-5 -6 -27 -88 -48 -181 -36 -157 -42 -172 -76 -209 -35
-37 -37 -38 -47 -19 -12 22 -13 88 -2 137 5 26 11 31 46 35 27 3 41 10 43 23
2 12 -3 17 -17 17 l-21 0 20 37 c33 62 21 123 -24 123 -34 0 -47 -21 -65 -103
-16 -71 -17 -72 -51 -77 -24 -3 -36 -11 -38 -24 -3 -16 1 -18 28 -14 l31 5 -6
-76 c-6 -69 -5 -79 15 -103 23 -30 48 -35 83 -16 12 6 33 11 46 12 23 1 27 8
44 71 19 75 44 126 65 133 9 3 10 -14 5 -72 -5 -65 -3 -79 12 -96 20 -23 67
-26 87 -7 7 7 37 12 66 12 49 0 56 3 88 37 20 23 31 43 28 53 -9 22 -18 19
-57 -20 -22 -22 -45 -35 -61 -35 -27 0 -30 4 -40 52 -6 26 -5 27 25 16 26 -9
35 -7 57 9 54 40 52 115 -3 129 -61 15 -120 -57 -121 -148 0 -62 -15 -91 -35
-71 -9 9 -9 26 0 69 15 76 14 90 -6 109 -11 11 -25 15 -45 11 -31 -6 -31 -9
-7 84 18 70 7 129 -19 97z m-122 -104 c0 -10 -9 -31 -21 -48 l-20 -30 7 40 c4
22 9 43 11 48 8 14 23 7 23 -10z m355 -93 c9 -14 -3 -47 -19 -53 -8 -3 -23 -3
-35 0 l-21 5 21 29 c21 29 43 37 54 19z"/>
<path d="M2744 751 c-33 -20 -56 -60 -76 -135 -9 -35 -20 -52 -40 -62 -36 -18
-60 -56 -56 -86 4 -31 44 -33 41 -1 -1 11 4 27 12 33 19 15 19 17 -4 -107 -20
-111 -31 -134 -61 -126 -15 4 -20 0 -20 -15 0 -24 41 -37 70 -22 30 16 38 38
60 166 25 142 30 159 39 124 4 -16 18 -29 36 -35 23 -8 31 -17 33 -40 7 -63
70 -94 119 -60 11 8 28 35 36 60 9 25 31 58 51 75 19 17 38 40 41 51 4 10 13
19 22 19 9 0 13 -6 10 -15 -4 -8 -12 -42 -19 -76 -12 -60 -12 -62 12 -81 27
-22 67 -18 88 9 16 22 15 32 -3 39 -9 4 -23 -4 -35 -17 l-19 -24 -1 34 c0 18
7 60 16 93 17 68 13 94 -14 83 -9 -4 -23 -9 -29 -12 -9 -3 -13 4 -13 20 0 50
-51 74 -83 39 -23 -25 -21 -57 5 -81 18 -17 19 -23 8 -36 -12 -14 -15 -13 -26
14 -25 59 -101 46 -144 -24 -12 -19 -28 -35 -36 -35 -17 0 -17 5 -2 29 19 30
3 54 -32 47 l-30 -5 20 50 c21 57 46 89 67 89 8 0 11 5 7 13 -5 8 -4 9 4 2 5
-5 12 -19 14 -30 2 -12 13 -21 26 -23 18 -3 22 1 22 25 0 16 -5 34 -12 41 -18
18 -69 14 -104 -7z m252 -128 c-11 -11 -19 6 -11 24 8 17 8 17 12 0 3 -10 2
-21 -1 -24z m-86 -68 c8 -10 9 -15 2 -15 -6 0 -11 -15 -11 -32 2 -41 -16 -87
-36 -94 -44 -17 -61 65 -25 124 21 34 50 41 70 17z"/>
<path d="M2507 733 c-11 -18 -38 -176 -33 -189 4 -11 0 -13 -18 -8 -34 8 -103
-30 -127 -71 -26 -43 -49 -53 -49 -20 0 71 -91 85 -142 23 -15 -18 -37 -44
-50 -58 l-22 -25 -7 35 c-13 60 -56 75 -119 41 -19 -10 -50 -22 -69 -26 -33
-7 -33 -6 -27 19 3 14 9 45 12 69 l6 43 57 12 c90 19 146 85 98 116 -15 9 -22
6 -39 -17 -33 -45 -68 -57 -160 -55 -87 1 -125 -10 -161 -50 -46 -50 -19 -162
38 -162 40 0 42 27 6 60 -17 16 -31 33 -31 38 0 4 13 21 29 36 34 33 129 52
119 24 -4 -8 -9 -41 -13 -72 -7 -53 -10 -58 -45 -76 -60 -31 -66 -90 -10 -113
l27 -12 -23 -52 c-24 -56 -60 -77 -89 -53 -19 16 -19 32 3 69 13 24 14 35 6
48 -32 51 -83 -19 -70 -93 26 -134 176 -97 206 51 23 117 24 120 53 123 26 3
26 2 15 -28 -22 -65 22 -140 83 -140 34 0 77 43 85 85 8 45 40 54 49 14 4 -16
18 -38 32 -49 52 -41 104 -17 137 62 21 50 33 54 40 13 11 -59 75 -85 110 -46
16 18 19 18 46 3 38 -22 80 -4 80 33 0 29 -24 34 -38 8 -9 -15 -11 -14 -20 4
-8 14 -7 37 3 84 37 168 56 281 51 295 -6 15 -22 19 -29 7z m-56 -247 c-6 -8
-15 -38 -18 -67 -5 -39 -13 -58 -32 -75 -23 -20 -28 -21 -40 -9 -20 19 -17 79
4 111 9 14 31 32 48 39 41 18 52 18 38 1z m-217 -42 c6 -10 15 -22 19 -25 5
-3 -1 -9 -12 -12 -16 -4 -21 -13 -21 -41 0 -38 -31 -81 -53 -73 -44 14 -38
115 9 155 29 26 43 25 58 -4z m-225 -18 c18 -22 16 -58 -7 -108 -33 -74 -82
-62 -82 20 0 35 6 49 29 73 33 32 43 35 60 15z m-219 -55 c0 -5 -6 -14 -14
-20 -16 -13 -32 2 -21 19 8 12 35 13 35 1z"/>
</g>
<g transform="translate(0.000000,219.000000) scale(0.100000,-0.100000)"
fill="#C80C22" stroke="none">
<path d="M2036 2015 c-15 -30 -48 -73 -74 -95 -62 -55 -82 -87 -82 -134 0 -36
1 -38 26 -32 15 4 39 9 54 13 18 3 30 13 34 27 3 12 25 40 49 63 54 51 63 88
42 161 -9 29 -17 52 -19 52 -2 0 -16 -25 -30 -55z"/>
<path d="M1737 1956 c4 -42 0 -72 -22 -139 -27 -87 -27 -109 2 -154 l15 -22
39 32 c29 24 39 40 39 62 0 17 7 51 15 77 21 69 -1 125 -69 179 l-25 19 6 -54z"/>
<path d="M2374 1972 c-16 -25 -120 -78 -170 -87 -54 -8 -99 -37 -119 -75 -9
-18 -15 -33 -13 -34 2 -1 25 -7 52 -14 42 -11 51 -10 66 3 9 8 39 22 67 30 73
22 100 47 119 111 18 61 17 97 -2 66z"/>
<path d="M1487 1788 c34 -37 53 -85 69 -166 15 -78 30 -104 74 -127 25 -13 26
-12 44 37 12 34 14 53 7 57 -6 4 -17 35 -25 70 -18 76 -49 113 -114 136 -66
22 -80 20 -55 -7z"/>
<path d="M2305 1756 c-17 -7 -36 -20 -43 -28 -10 -13 -7 -20 24 -43 36 -27 81
-36 201 -38 36 -1 89 36 124 85 21 29 22 31 3 24 -43 -17 -123 -18 -192 -2
-84 19 -79 19 -117 2z"/>
<path d="M2408 1592 c-16 -2 -28 -6 -28 -10 0 -21 35 -92 45 -92 7 0 29 -11
50 -25 20 -15 38 -25 40 -23 1 2 5 28 9 59 5 51 4 58 -17 71 -26 17 -61 24
-99 20z"/>
<path d="M1555 1404 c0 -83 0 -84 29 -94 16 -5 40 -10 54 -10 20 0 23 4 18 23
-3 12 -6 36 -6 53 0 24 -5 33 -22 38 -13 3 -34 21 -48 39 l-25 34 0 -83z"/>
<path d="M2418 1359 c-2 -36 1 -53 10 -57 7 -2 26 -31 42 -63 16 -31 34 -60
40 -64 6 -4 10 30 10 98 l0 105 -34 16 c-56 26 -64 22 -68 -35z"/>
<path d="M1504 1220 c-17 -27 -26 -46 -19 -43 7 2 45 -9 83 -26 39 -17 84 -31
101 -31 31 0 84 19 79 29 -22 46 -56 81 -79 81 -15 0 -46 9 -70 20 -24 11 -48
19 -54 19 -5 0 -24 -22 -41 -49z"/>
<path d="M2359 1193 c-20 -32 -23 -48 -20 -117 2 -45 9 -93 18 -109 12 -25 94
-87 114 -87 5 0 1 17 -8 38 -12 27 -16 65 -15 144 2 101 0 108 -24 137 -14 17
-30 31 -34 31 -5 0 -19 -17 -31 -37z"/>
<path d="M1808 1089 c-2 -6 -35 -14 -74 -19 -80 -8 -103 -18 -134 -57 -17 -22
-50 -86 -50 -98 0 -1 23 9 50 23 38 19 73 26 143 31 97 6 136 21 157 61 9 17
5 22 -39 45 -30 15 -51 20 -53 14z"/>
<path d="M2220 1073 c-25 -14 -44 -29 -42 -34 1 -6 -14 -41 -34 -78 -43 -77
-42 -109 4 -180 24 -38 27 -40 30 -19 7 50 35 121 69 169 40 59 51 106 32 141
l-14 25 -45 -24z"/>
<path d="M1984 1015 c-3 -8 -32 -31 -64 -50 -36 -22 -62 -46 -70 -65 -11 -28
-16 -137 -6 -147 2 -3 12 9 20 25 18 35 84 91 141 120 52 26 81 59 88 100 l7
32 -56 0 c-39 0 -56 -4 -60 -15z"/>
</g>
</svg>
