<?xml version="1.0" standalone="no"?>
<!DOCTYPE svg PUBLIC "-//W3C//DTD SVG 20010904//EN"
 "http://www.w3.org/TR/2001/REC-SVG-20010904/DTD/svg10.dtd">
<svg version="1.0" xmlns="http://www.w3.org/2000/svg"
 width="86.000000pt" height="103.000000pt" viewBox="0 0 86.000000 103.000000"
 preserveAspectRatio="xMidYMid meet">

<g transform="translate(0.000000,103.000000) scale(0.100000,-0.100000)"
fill="#000000" stroke="none">
<path d="M213 783 c-24 -8 -43 -20 -43 -26 0 -7 -11 -109 -25 -227 -35 -306
-39 -279 44 -320 l69 -33 228 7 c126 4 233 10 238 13 12 8 -3 574 -16 591 -16
19 -439 15 -495 -5z m451 -85 c3 -24 8 -134 11 -245 l6 -203 -113 0 c-62 0
-150 -3 -195 -7 l-83 -6 0 252 0 251 184 0 185 0 5 -42z m-434 -190 c0 -173
-3 -219 -12 -210 -7 7 -19 12 -28 12 -15 0 -14 19 6 198 13 108 23 203 23 210
1 6 3 12 6 12 3 0 5 -100 5 -222z"/>
<path d="M360 660 l0 -31 118 3 117 3 0 25 0 25 -117 3 -118 3 0 -31z"/>
<path d="M402 524 c-37 -25 -28 -59 29 -115 l51 -50 37 25 c65 45 88 107 53
139 -23 21 -41 21 -70 1 -20 -14 -24 -14 -44 0 -12 9 -25 16 -28 16 -3 0 -16
-7 -28 -16z"/>
</g>
</svg>
