<svg width="20" height="20" viewBox="0 0 20 20" fill="none" xmlns="http://www.w3.org/2000/svg">
<circle cx="10" cy="10" r="9" fill="white"/>
<path d="M10 20.0005C4.47706 20.0005 0 15.5234 0 10.0005C0 4.47755 4.47706 0.000488281 10 0.000488281C15.5229 0.000488281 20 4.47755 20 10.0005C20 15.5234 15.5229 20.0005 10 20.0005ZM6.59069 9.77845L8.74632 11.8129L12.6559 6.78596C12.9875 6.35993 13.6036 6.28212 14.0309 6.61504C14.4569 6.94666 14.5347 7.56273 14.2018 7.99003L9.63035 13.8676C9.27577 14.3229 8.60485 14.3752 8.18519 13.9773L5.24641 11.2018C4.85229 10.8306 4.83443 10.2107 5.20687 9.81783C5.57804 9.42371 6.19784 9.406 6.59069 9.77845ZM10 18.2862C14.5767 18.2862 18.2857 14.5771 18.2857 10.0005C18.2857 5.42384 14.5767 1.71477 10 1.71477C5.42335 1.71477 1.71429 5.42384 1.71429 10.0005C1.71429 14.5771 5.42335 18.2862 10 18.2862Z" fill="#24CA8F"/>
</svg>
