<?xml version="1.0" standalone="no"?>
<!DOCTYPE svg PUBLIC "-//W3C//DTD SVG 20010904//EN"
 "http://www.w3.org/TR/2001/REC-SVG-20010904/DTD/svg10.dtd">
<svg version="1.0" xmlns="http://www.w3.org/2000/svg"
 width="173.000000pt" height="142.000000pt" viewBox="0 0 173.000000 142.000000"
 preserveAspectRatio="xMidYMid meet">

<g transform="translate(0.000000,142.000000) scale(0.100000,-0.100000)"
fill="#000000" stroke="none">
<path d="M342 1334 c-20 -14 -22 -23 -22 -108 0 -61 4 -98 13 -110 13 -18 17
-17 82 20 97 53 105 64 105 128 0 36 -5 60 -16 70 -21 22 -131 22 -162 0z"/>
<path d="M806 1309 c-22 -12 -90 -56 -150 -98 -61 -43 -162 -107 -225 -142
-130 -73 -175 -112 -191 -166 -18 -65 -23 -228 -15 -487 l7 -249 32 -34 c44
-47 88 -53 334 -40 145 7 261 7 387 -1 202 -12 385 -3 433 22 55 29 57 46 53
436 -2 268 -6 361 -16 380 -22 41 -74 84 -195 160 -63 40 -135 87 -160 105
-56 40 -206 124 -234 130 -11 3 -39 -4 -60 -16z m267 -658 c13 -13 9 -318 -4
-343 -9 -16 -26 -18 -210 -18 -119 0 -208 4 -220 10 -18 10 -19 23 -19 166 0
154 0 155 26 181 l26 26 196 -6 c107 -3 199 -10 205 -16z"/>
</g>
</svg>
