<svg width="24" height="24" viewBox="0 0 24 24" fill="none" xmlns="http://www.w3.org/2000/svg">
<path d="M10.192 0C6.929 0.00156233 3.86284 1.56557 1.94465 4.2078C0.0280529 6.84832 -0.509258 10.2495 0.499784 13.3542C1.50883 16.4587 3.94246 18.8915 7.04612 19.9007C10.1514 20.9084 13.5505 20.3694 16.19 18.4507L21.268 23.5301C21.8928 24.1566 22.9066 24.1566 23.5314 23.5301C24.1562 22.9051 24.1562 21.8927 23.5314 21.2677L18.4534 16.1884V16.1868C19.9373 14.1478 20.6105 11.6306 20.3466 9.12313C20.0826 6.61545 18.8986 4.29376 17.0226 2.60944C15.1466 0.923594 12.7132 -0.00608211 10.192 0.000197592L10.192 0ZM10.192 17.1992C8.33639 17.1992 6.55567 16.4617 5.24361 15.1493C3.93154 13.8369 3.19425 12.0557 3.19425 10.1995C3.19425 8.34337 3.93154 6.56217 5.24361 5.24975C6.55567 3.93734 8.33639 3.19985 10.192 3.19985C12.0477 3.19985 13.8284 3.93734 15.1405 5.24975C16.4526 6.56217 17.1898 8.34337 17.1898 10.1995C17.1883 12.0557 16.4494 13.8337 15.1374 15.1461C13.8253 16.4585 12.0477 17.1976 10.1921 17.1991L10.192 17.1992Z" fill="white"/>
</svg>
