<svg width="68" height="68" viewBox="0 0 68 68" fill="none" xmlns="http://www.w3.org/2000/svg">
<g filter="url(#filter0_d_28_4663)">
<rect x="10" y="6" width="48" height="48" rx="10" fill="white"/>
</g>
<path fill-rule="evenodd" clip-rule="evenodd" d="M27.4401 32.5409C27.4407 32.6011 27.4412 32.6546 27.4412 32.7009C27.4412 32.9255 27.44 33.2367 27.4388 33.5578C27.4376 33.8999 27.4363 34.2531 27.4363 34.5246H27.6165C27.9579 34.5246 28.2631 34.3001 28.3814 33.9622L28.3814 33.9622C29.3846 31.0966 30.8022 29.3562 32.6341 28.741C33.9119 28.3119 35.3184 28.1794 37.2929 28.1221V32.5542C37.2929 32.7711 37.3704 32.98 37.51 33.1391C37.816 33.4879 38.332 33.5088 38.6624 33.1858L45.7386 26.2685C45.7559 26.2516 45.7725 26.2338 45.7884 26.2153C46.091 25.8633 46.0659 25.3189 45.7324 24.9995L38.6562 18.2233C38.5062 18.0796 38.3109 18 38.1083 18C37.658 18 37.2929 18.3854 37.2929 18.8607V23.3202C34.1831 23.4661 31.5827 23.786 29.8451 25.6305C27.4 28.2261 27.4301 31.4621 27.4401 32.5409ZM32.764 20.1944C32.764 19.5605 32.2772 19.0467 31.6767 19.0467H26.3491C23.9472 19.0467 22 21.102 22 23.6374V37.4093C22 39.9447 23.9472 42 26.3491 42H39.3964C41.7983 42 43.7455 39.9447 43.7455 37.4093V35.114C43.7455 34.4802 43.2587 33.9663 42.6582 33.9663C42.0577 33.9663 41.5709 34.4802 41.5709 35.114V37.4093C41.5709 38.677 40.5974 39.7047 39.3964 39.7047H26.3491C25.1481 39.7047 24.1745 38.677 24.1745 37.4093V23.6374C24.1745 22.3697 25.1481 21.342 26.3491 21.342H31.6767C32.2772 21.342 32.764 20.8282 32.764 20.1944Z" fill="black"/>
<defs>
<filter id="filter0_d_28_4663" x="0" y="0" width="68" height="68" filterUnits="userSpaceOnUse" color-interpolation-filters="sRGB">
<feFlood flood-opacity="0" result="BackgroundImageFix"/>
<feColorMatrix in="SourceAlpha" type="matrix" values="0 0 0 0 0 0 0 0 0 0 0 0 0 0 0 0 0 0 127 0" result="hardAlpha"/>
<feMorphology radius="2" operator="dilate" in="SourceAlpha" result="effect1_dropShadow_28_4663"/>
<feOffset dy="4"/>
<feGaussianBlur stdDeviation="4"/>
<feComposite in2="hardAlpha" operator="out"/>
<feColorMatrix type="matrix" values="0 0 0 0 0 0 0 0 0 0 0 0 0 0 0 0 0 0 0.2 0"/>
<feBlend mode="normal" in2="BackgroundImageFix" result="effect1_dropShadow_28_4663"/>
<feBlend mode="normal" in="SourceGraphic" in2="effect1_dropShadow_28_4663" result="shape"/>
</filter>
</defs>
</svg>
