<svg width="25" height="24" viewBox="0 0 25 24" fill="none" xmlns="http://www.w3.org/2000/svg">
<g clip-path="url(#clip0_1201_7581)">
<path d="M7.86475 21.7497C17.2964 21.7497 22.4565 14.2465 22.4565 7.74162C22.4565 7.53068 22.4517 7.31505 22.4419 7.10412C23.4457 6.40722 24.312 5.54401 25 4.55505C24.0651 4.95436 23.0725 5.21514 22.0562 5.32849C23.1263 4.71266 23.9276 3.74523 24.3115 2.60552C23.3047 3.17831 22.2037 3.58237 21.0557 3.80037C20.2821 3.01132 19.2594 2.48887 18.1455 2.31381C17.0316 2.13874 15.8887 2.32081 14.8935 2.83185C13.8982 3.3429 13.106 4.15446 12.6394 5.14107C12.1728 6.12767 12.0577 7.23437 12.312 8.29005C10.2734 8.19185 8.2791 7.68346 6.45831 6.79785C4.63753 5.91225 3.03093 4.66919 1.74268 3.14927C1.08792 4.233 0.887559 5.5154 1.18232 6.73585C1.47709 7.95629 2.24486 9.0232 3.32959 9.71974C2.51524 9.69492 1.71872 9.48444 1.00586 9.10568V9.16662C1.00513 10.3039 1.41469 11.4063 2.16491 12.2865C2.91513 13.1667 3.95971 13.7703 5.12109 13.9947C4.36672 14.1929 3.57498 14.2218 2.80713 14.0791C3.13485 15.0572 3.77247 15.9126 4.63101 16.5261C5.48955 17.1395 6.52617 17.4804 7.59619 17.501C5.77961 18.8709 3.5356 19.6139 1.22559 19.6104C0.815924 19.6098 0.406666 19.5857 0 19.5382C2.34673 20.9835 5.07659 21.7511 7.86475 21.7497Z" fill="white"/>
</g>
<defs>
<clipPath id="clip0_1201_7581">
<rect width="25" height="24" fill="white"/>
</clipPath>
</defs>
</svg>
